<mxfile host="65bd71144e">
    <diagram id="u0GiuqXb7Nrh7RnN3-gN" name="Bounded Context">
        <mxGraphModel dx="986" dy="427" grid="1" gridSize="10" guides="1" tooltips="1" connect="1" arrows="1" fold="1" page="1" pageScale="1" pageWidth="850" pageHeight="1100" math="0" shadow="0">
            <root>
                <mxCell id="0"/>
                <mxCell id="1" parent="0"/>
                <mxCell id="2" value="eShop" style="rounded=1;whiteSpace=wrap;html=1;" parent="1" vertex="1">
                    <mxGeometry x="290" y="120" width="120" height="60" as="geometry"/>
                </mxCell>
                <mxCell id="4" value="Payment" style="shape=umlFrame;whiteSpace=wrap;html=1;width=120;height=30;boundedLbl=1;verticalAlign=middle;align=left;spacingLeft=5;" parent="1" vertex="1">
                    <mxGeometry x="20" y="220" width="220" height="120" as="geometry"/>
                </mxCell>
                <mxCell id="5" value="Ordering" style="shape=umlFrame;whiteSpace=wrap;html=1;width=120;height=30;boundedLbl=1;verticalAlign=middle;align=left;spacingLeft=5;" parent="1" vertex="1">
                    <mxGeometry x="330" y="220" width="220" height="160" as="geometry"/>
                </mxCell>
                <mxCell id="6" value="Identity" style="shape=umlFrame;whiteSpace=wrap;html=1;width=120;height=30;boundedLbl=1;verticalAlign=middle;align=left;spacingLeft=5;" parent="1" vertex="1">
                    <mxGeometry x="630" y="220" width="220" height="120" as="geometry"/>
                </mxCell>
                <mxCell id="7" value="Catalog" style="shape=umlFrame;whiteSpace=wrap;html=1;width=120;height=30;boundedLbl=1;verticalAlign=middle;align=left;spacingLeft=5;" parent="1" vertex="1">
                    <mxGeometry x="20" y="400" width="220" height="130" as="geometry"/>
                </mxCell>
                <mxCell id="9" value="Basket" style="shape=umlFrame;whiteSpace=wrap;html=1;width=120;height=30;boundedLbl=1;verticalAlign=middle;align=left;spacingLeft=5;" parent="1" vertex="1">
                    <mxGeometry x="630" y="400" width="220" height="120" as="geometry"/>
                </mxCell>
                <mxCell id="11" value="+ Provide Payment Gateway&lt;br&gt;+ History&lt;br&gt;+ Tracking&lt;br&gt;+ Report" style="text;html=1;strokeColor=none;fillColor=none;align=left;verticalAlign=middle;whiteSpace=wrap;rounded=0;" parent="1" vertex="1">
                    <mxGeometry x="20" y="260" width="220" height="80" as="geometry"/>
                </mxCell>
                <mxCell id="12" value="Delivery" style="shape=umlFrame;whiteSpace=wrap;html=1;width=120;height=30;boundedLbl=1;verticalAlign=middle;align=left;spacingLeft=5;" parent="1" vertex="1">
                    <mxGeometry x="330" y="570" width="220" height="120" as="geometry"/>
                </mxCell>
                <mxCell id="13" value="+ Making&lt;br&gt;+ Status Management&lt;br&gt;+ Notify to user about stock verification (Ex. After Create Order, an item can have stock or not)&lt;br&gt;+ Notify to Catalog when Order status change to paid&lt;br&gt;+ Report" style="text;html=1;strokeColor=none;fillColor=none;align=left;verticalAlign=middle;whiteSpace=wrap;rounded=0;" parent="1" vertex="1">
                    <mxGeometry x="330" y="250" width="220" height="130" as="geometry"/>
                </mxCell>
                <mxCell id="14" value="+ User Authen/Autho&lt;br&gt;+ API Authen/Autho&lt;br&gt;+ History&lt;br&gt;+ Report" style="text;html=1;strokeColor=none;fillColor=none;align=left;verticalAlign=middle;whiteSpace=wrap;rounded=0;" parent="1" vertex="1">
                    <mxGeometry x="630" y="260" width="220" height="80" as="geometry"/>
                </mxCell>
                <mxCell id="15" value="+ Product Management&lt;br&gt;+ Verify item stock then confirm or reject request&lt;br&gt;+ Remove item when Order change to paid&lt;br&gt;+ Report" style="text;html=1;strokeColor=none;fillColor=none;align=left;verticalAlign=middle;whiteSpace=wrap;rounded=0;" parent="1" vertex="1">
                    <mxGeometry x="20" y="440" width="220" height="80" as="geometry"/>
                </mxCell>
                <mxCell id="17" value="Promotion" style="shape=umlFrame;whiteSpace=wrap;html=1;width=120;height=30;boundedLbl=1;verticalAlign=middle;align=left;spacingLeft=5;" parent="1" vertex="1">
                    <mxGeometry x="330" y="400" width="220" height="120" as="geometry"/>
                </mxCell>
                <mxCell id="18" value="+ Assign package to Agent&lt;br&gt;+ Get tracking from Agent" style="text;html=1;strokeColor=none;fillColor=none;align=left;verticalAlign=middle;whiteSpace=wrap;rounded=0;" parent="1" vertex="1">
                    <mxGeometry x="330" y="610" width="220" height="80" as="geometry"/>
                </mxCell>
                <mxCell id="22" value="+ Manage campaign, offers&lt;br&gt;+ Promotion Engine&lt;br&gt;+ Suggestion Engine" style="text;html=1;strokeColor=none;fillColor=none;align=left;verticalAlign=middle;whiteSpace=wrap;rounded=0;" parent="1" vertex="1">
                    <mxGeometry x="330" y="440" width="220" height="80" as="geometry"/>
                </mxCell>
                <mxCell id="28" value="+ Cart management&lt;br&gt;+ Raise UserCheckout event" style="text;html=1;strokeColor=none;fillColor=none;align=left;verticalAlign=middle;whiteSpace=wrap;rounded=0;" parent="1" vertex="1">
                    <mxGeometry x="630" y="440" width="220" height="80" as="geometry"/>
                </mxCell>
                <mxCell id="vX0AaTOOjbRXFZJsMf_o-28" value="Client User" style="shape=umlLifeline;perimeter=lifelinePerimeter;whiteSpace=wrap;html=1;container=1;collapsible=0;recursiveResize=0;outlineConnect=0;" parent="1" vertex="1">
                    <mxGeometry x="60" y="720" width="100" height="1450" as="geometry"/>
                </mxCell>
                <mxCell id="vX0AaTOOjbRXFZJsMf_o-29" value="Checkout" style="html=1;verticalAlign=bottom;labelBackgroundColor=none;endArrow=open;endFill=0;dashed=1;" parent="vX0AaTOOjbRXFZJsMf_o-28" edge="1">
                    <mxGeometry width="160" relative="1" as="geometry">
                        <mxPoint x="50" y="185" as="sourcePoint"/>
                        <mxPoint x="219.5" y="185" as="targetPoint"/>
                    </mxGeometry>
                </mxCell>
                <mxCell id="30VRA0aZ1PyHkpjyzQQC-28" value="Add/Remove/Change quantity" style="html=1;verticalAlign=bottom;labelBackgroundColor=none;endArrow=open;endFill=0;dashed=1;" parent="vX0AaTOOjbRXFZJsMf_o-28" target="30VRA0aZ1PyHkpjyzQQC-30" edge="1">
                    <mxGeometry width="160" relative="1" as="geometry">
                        <mxPoint x="50" y="80" as="sourcePoint"/>
                        <mxPoint x="169.5" y="80" as="targetPoint"/>
                    </mxGeometry>
                </mxCell>
                <mxCell id="0RYQkDIKPmP7uPoeJiNk-36" value="Go to Order Listing" style="endArrow=open;html=1;rounded=0;align=center;verticalAlign=bottom;dashed=1;endFill=0;labelBackgroundColor=none;" parent="vX0AaTOOjbRXFZJsMf_o-28" target="vX0AaTOOjbRXFZJsMf_o-28" edge="1">
                    <mxGeometry relative="1" as="geometry">
                        <mxPoint x="50" y="250" as="sourcePoint"/>
                        <mxPoint x="120" y="360" as="targetPoint"/>
                        <Array as="points">
                            <mxPoint x="130" y="250"/>
                            <mxPoint x="130" y="290"/>
                        </Array>
                    </mxGeometry>
                </mxCell>
                <mxCell id="vX0AaTOOjbRXFZJsMf_o-30" value="Basket Service" style="shape=umlLifeline;perimeter=lifelinePerimeter;whiteSpace=wrap;html=1;container=1;collapsible=0;recursiveResize=0;outlineConnect=0;lifelineDashed=0;" parent="1" vertex="1">
                    <mxGeometry x="400" y="720" width="100" height="290" as="geometry"/>
                </mxCell>
                <mxCell id="30VRA0aZ1PyHkpjyzQQC-31" value="&amp;lt;&amp;lt;&amp;gt;&amp;gt;" style="html=1;verticalAlign=bottom;labelBackgroundColor=none;endArrow=open;endFill=0;dashed=1;" parent="vX0AaTOOjbRXFZJsMf_o-30" source="30VRA0aZ1PyHkpjyzQQC-30" edge="1">
                    <mxGeometry width="160" relative="1" as="geometry">
                        <mxPoint x="-70" y="90" as="sourcePoint"/>
                        <mxPoint x="49.5" y="90" as="targetPoint"/>
                    </mxGeometry>
                </mxCell>
                <mxCell id="0RYQkDIKPmP7uPoeJiNk-39" value="&amp;lt;&amp;lt;&amp;gt;&amp;gt;" style="html=1;verticalAlign=bottom;labelBackgroundColor=none;endArrow=open;endFill=0;dashed=1;" parent="vX0AaTOOjbRXFZJsMf_o-30" edge="1">
                    <mxGeometry width="160" relative="1" as="geometry">
                        <mxPoint x="-120" y="430" as="sourcePoint"/>
                        <mxPoint x="189.5" y="430" as="targetPoint"/>
                    </mxGeometry>
                </mxCell>
                <mxCell id="2EtXU9p0EtEa4dIMnpt1-34" value="" style="html=1;points=[];perimeter=orthogonalPerimeter;" parent="vX0AaTOOjbRXFZJsMf_o-30" vertex="1">
                    <mxGeometry x="45" y="170" width="10" height="110" as="geometry"/>
                </mxCell>
                <mxCell id="vX0AaTOOjbRXFZJsMf_o-31" value="Ordering Service" style="shape=umlLifeline;perimeter=lifelinePerimeter;whiteSpace=wrap;html=1;container=1;collapsible=0;recursiveResize=0;outlineConnect=0;lifelineDashed=0;" parent="1" vertex="1">
                    <mxGeometry x="540" y="720" width="100" height="1340" as="geometry"/>
                </mxCell>
                <mxCell id="vX0AaTOOjbRXFZJsMf_o-32" value="Create Order" style="html=1;verticalAlign=bottom;labelBackgroundColor=none;endArrow=open;endFill=0;dashed=1;" parent="vX0AaTOOjbRXFZJsMf_o-31" edge="1">
                    <mxGeometry width="160" relative="1" as="geometry">
                        <mxPoint x="-80" y="202" as="sourcePoint"/>
                        <mxPoint x="40" y="202" as="targetPoint"/>
                    </mxGeometry>
                </mxCell>
                <mxCell id="AvO_6vjt_rUgqWW4JwSH-34" value="" style="html=1;points=[];perimeter=orthogonalPerimeter;" parent="vX0AaTOOjbRXFZJsMf_o-31" vertex="1">
                    <mxGeometry x="45" y="780" width="10" height="110" as="geometry"/>
                </mxCell>
                <mxCell id="FyEHZ94JGLxsrPab4Wa3-34" value="" style="html=1;points=[];perimeter=orthogonalPerimeter;" parent="vX0AaTOOjbRXFZJsMf_o-31" vertex="1">
                    <mxGeometry x="45" y="940" width="10" height="110" as="geometry"/>
                </mxCell>
                <mxCell id="FyEHZ94JGLxsrPab4Wa3-43" value="" style="html=1;points=[];perimeter=orthogonalPerimeter;" parent="vX0AaTOOjbRXFZJsMf_o-31" vertex="1">
                    <mxGeometry x="45" y="1080" width="10" height="110" as="geometry"/>
                </mxCell>
                <mxCell id="FyEHZ94JGLxsrPab4Wa3-44" value="Change Order status to Canceled&amp;nbsp;" style="endArrow=open;html=1;rounded=0;align=center;verticalAlign=bottom;dashed=1;endFill=0;labelBackgroundColor=none;" parent="vX0AaTOOjbRXFZJsMf_o-31" edge="1">
                    <mxGeometry relative="1" as="geometry">
                        <mxPoint x="39.5" y="1090" as="sourcePoint"/>
                        <mxPoint x="39.5" y="1150" as="targetPoint"/>
                        <Array as="points">
                            <mxPoint x="-59.75" y="1090"/>
                            <mxPoint x="-60" y="1150"/>
                        </Array>
                    </mxGeometry>
                </mxCell>
                <mxCell id="FyEHZ94JGLxsrPab4Wa3-50" value="Change Order status to StockConfirmed" style="endArrow=open;html=1;rounded=0;align=center;verticalAlign=bottom;dashed=1;endFill=0;labelBackgroundColor=none;" parent="vX0AaTOOjbRXFZJsMf_o-31" edge="1">
                    <mxGeometry relative="1" as="geometry">
                        <mxPoint x="45" y="960" as="sourcePoint"/>
                        <mxPoint x="45" y="1020" as="targetPoint"/>
                        <Array as="points">
                            <mxPoint x="-54.25" y="960"/>
                            <mxPoint x="-54.5" y="1020"/>
                        </Array>
                    </mxGeometry>
                </mxCell>
                <mxCell id="FyEHZ94JGLxsrPab4Wa3-51" value="" style="html=1;points=[];perimeter=orthogonalPerimeter;" parent="vX0AaTOOjbRXFZJsMf_o-31" vertex="1">
                    <mxGeometry x="45" y="1210" width="10" height="110" as="geometry"/>
                </mxCell>
                <mxCell id="FyEHZ94JGLxsrPab4Wa3-52" value="Change Order status to Paid" style="endArrow=open;html=1;rounded=0;align=center;verticalAlign=bottom;dashed=1;endFill=0;labelBackgroundColor=none;" parent="vX0AaTOOjbRXFZJsMf_o-31" edge="1">
                    <mxGeometry relative="1" as="geometry">
                        <mxPoint x="39.5" y="1220" as="sourcePoint"/>
                        <mxPoint x="39.5" y="1280" as="targetPoint"/>
                        <Array as="points">
                            <mxPoint x="-59.75" y="1220"/>
                            <mxPoint x="-60" y="1280"/>
                        </Array>
                    </mxGeometry>
                </mxCell>
                <mxCell id="lNKn7yxebGxFFtp7Wl8g-34" value="" style="html=1;points=[];perimeter=orthogonalPerimeter;" parent="vX0AaTOOjbRXFZJsMf_o-31" vertex="1">
                    <mxGeometry x="45" y="190" width="10" height="180" as="geometry"/>
                </mxCell>
                <mxCell id="30VRA0aZ1PyHkpjyzQQC-30" value="API Gateway" style="shape=umlLifeline;perimeter=lifelinePerimeter;whiteSpace=wrap;html=1;container=1;collapsible=0;recursiveResize=0;outlineConnect=0;lifelineDashed=0;" parent="1" vertex="1">
                    <mxGeometry x="230" y="720" width="100" height="720" as="geometry"/>
                </mxCell>
                <mxCell id="29" value="&amp;lt;&amp;lt;&amp;gt;&amp;gt;" style="html=1;verticalAlign=bottom;labelBackgroundColor=none;endArrow=open;endFill=0;dashed=1;" parent="1" edge="1">
                    <mxGeometry width="160" relative="1" as="geometry">
                        <mxPoint x="280" y="912" as="sourcePoint"/>
                        <mxPoint x="440" y="912" as="targetPoint"/>
                    </mxGeometry>
                </mxCell>
                <mxCell id="0RYQkDIKPmP7uPoeJiNk-29" value="Catalog Service" style="shape=umlLifeline;perimeter=lifelinePerimeter;whiteSpace=wrap;html=1;container=1;collapsible=0;recursiveResize=0;outlineConnect=0;lifelineDashed=0;" parent="1" vertex="1">
                    <mxGeometry x="860" y="720" width="100" height="1450" as="geometry"/>
                </mxCell>
                <mxCell id="hu2RjoYyTsey--QGNp9i-41" value="" style="html=1;points=[];perimeter=orthogonalPerimeter;" parent="0RYQkDIKPmP7uPoeJiNk-29" vertex="1">
                    <mxGeometry x="45" y="720" width="10" height="260" as="geometry"/>
                </mxCell>
                <mxCell id="FyEHZ94JGLxsrPab4Wa3-39" value="Via EventBus" style="text;html=1;align=center;verticalAlign=middle;resizable=0;points=[];autosize=1;strokeColor=none;fillColor=none;" parent="0RYQkDIKPmP7uPoeJiNk-29" vertex="1">
                    <mxGeometry x="-55" y="1030" width="100" height="30" as="geometry"/>
                </mxCell>
                <mxCell id="FyEHZ94JGLxsrPab4Wa3-42" value="Via EventBus" style="text;html=1;align=center;verticalAlign=middle;resizable=0;points=[];autosize=1;strokeColor=none;fillColor=none;" parent="0RYQkDIKPmP7uPoeJiNk-29" vertex="1">
                    <mxGeometry x="-45" y="1123" width="100" height="30" as="geometry"/>
                </mxCell>
                <mxCell id="FyEHZ94JGLxsrPab4Wa3-49" value="Via EventBus" style="text;html=1;align=center;verticalAlign=middle;resizable=0;points=[];autosize=1;strokeColor=none;fillColor=none;" parent="0RYQkDIKPmP7uPoeJiNk-29" vertex="1">
                    <mxGeometry x="-45" y="1228" width="100" height="30" as="geometry"/>
                </mxCell>
                <mxCell id="FyEHZ94JGLxsrPab4Wa3-53" value="" style="html=1;points=[];perimeter=orthogonalPerimeter;" parent="0RYQkDIKPmP7uPoeJiNk-29" vertex="1">
                    <mxGeometry x="45" y="1270" width="10" height="140" as="geometry"/>
                </mxCell>
                <mxCell id="35" value="Client User" style="shape=umlLifeline;perimeter=lifelinePerimeter;whiteSpace=wrap;html=1;container=1;collapsible=0;recursiveResize=0;outlineConnect=0;" vertex="1" parent="0RYQkDIKPmP7uPoeJiNk-29">
                    <mxGeometry x="-800" width="100" height="1450" as="geometry"/>
                </mxCell>
                <mxCell id="36" value="Checkout" style="html=1;verticalAlign=bottom;labelBackgroundColor=none;endArrow=open;endFill=0;dashed=1;" edge="1" parent="35">
                    <mxGeometry width="160" relative="1" as="geometry">
                        <mxPoint x="50" y="185" as="sourcePoint"/>
                        <mxPoint x="219.5" y="185" as="targetPoint"/>
                    </mxGeometry>
                </mxCell>
                <mxCell id="37" value="Add/Remove/Change quantity" style="html=1;verticalAlign=bottom;labelBackgroundColor=none;endArrow=open;endFill=0;dashed=1;" edge="1" parent="35" target="39">
                    <mxGeometry width="160" relative="1" as="geometry">
                        <mxPoint x="50" y="80" as="sourcePoint"/>
                        <mxPoint x="169.5" y="80" as="targetPoint"/>
                    </mxGeometry>
                </mxCell>
                <mxCell id="38" value="Go to Order Listing" style="endArrow=open;html=1;rounded=0;align=center;verticalAlign=bottom;dashed=1;endFill=0;labelBackgroundColor=none;" edge="1" parent="35" target="35">
                    <mxGeometry relative="1" as="geometry">
                        <mxPoint x="50" y="250" as="sourcePoint"/>
                        <mxPoint x="120" y="360" as="targetPoint"/>
                        <Array as="points">
                            <mxPoint x="130" y="250"/>
                            <mxPoint x="130" y="290"/>
                        </Array>
                    </mxGeometry>
                </mxCell>
                <mxCell id="39" value="API Gateway" style="shape=umlLifeline;perimeter=lifelinePerimeter;whiteSpace=wrap;html=1;container=1;collapsible=0;recursiveResize=0;outlineConnect=0;lifelineDashed=0;" vertex="1" parent="0RYQkDIKPmP7uPoeJiNk-29">
                    <mxGeometry x="-630" width="100" height="720" as="geometry"/>
                </mxCell>
                <mxCell id="40" value="Basket Service" style="shape=umlLifeline;perimeter=lifelinePerimeter;whiteSpace=wrap;html=1;container=1;collapsible=0;recursiveResize=0;outlineConnect=0;lifelineDashed=0;" vertex="1" parent="0RYQkDIKPmP7uPoeJiNk-29">
                    <mxGeometry x="-460" width="100" height="290" as="geometry"/>
                </mxCell>
                <mxCell id="41" value="&amp;lt;&amp;lt;&amp;gt;&amp;gt;" style="html=1;verticalAlign=bottom;labelBackgroundColor=none;endArrow=open;endFill=0;dashed=1;" edge="1" parent="40" source="39">
                    <mxGeometry width="160" relative="1" as="geometry">
                        <mxPoint x="-70" y="90" as="sourcePoint"/>
                        <mxPoint x="49.5" y="90" as="targetPoint"/>
                    </mxGeometry>
                </mxCell>
                <mxCell id="42" value="&amp;lt;&amp;lt;&amp;gt;&amp;gt;" style="html=1;verticalAlign=bottom;labelBackgroundColor=none;endArrow=open;endFill=0;dashed=1;" edge="1" parent="40">
                    <mxGeometry width="160" relative="1" as="geometry">
                        <mxPoint x="-120" y="430" as="sourcePoint"/>
                        <mxPoint x="189.5" y="430" as="targetPoint"/>
                    </mxGeometry>
                </mxCell>
                <mxCell id="43" value="" style="html=1;points=[];perimeter=orthogonalPerimeter;" vertex="1" parent="40">
                    <mxGeometry x="45" y="170" width="10" height="110" as="geometry"/>
                </mxCell>
                <mxCell id="44" value="Ordering Service" style="shape=umlLifeline;perimeter=lifelinePerimeter;whiteSpace=wrap;html=1;container=1;collapsible=0;recursiveResize=0;outlineConnect=0;lifelineDashed=0;" vertex="1" parent="0RYQkDIKPmP7uPoeJiNk-29">
                    <mxGeometry x="-320" width="100" height="1340" as="geometry"/>
                </mxCell>
                <mxCell id="45" value="Create Order" style="html=1;verticalAlign=bottom;labelBackgroundColor=none;endArrow=open;endFill=0;dashed=1;" edge="1" parent="44">
                    <mxGeometry width="160" relative="1" as="geometry">
                        <mxPoint x="-80" y="202" as="sourcePoint"/>
                        <mxPoint x="40" y="202" as="targetPoint"/>
                    </mxGeometry>
                </mxCell>
                <mxCell id="46" value="" style="html=1;points=[];perimeter=orthogonalPerimeter;" vertex="1" parent="44">
                    <mxGeometry x="45" y="780" width="10" height="110" as="geometry"/>
                </mxCell>
                <mxCell id="47" value="" style="html=1;points=[];perimeter=orthogonalPerimeter;" vertex="1" parent="44">
                    <mxGeometry x="45" y="940" width="10" height="110" as="geometry"/>
                </mxCell>
                <mxCell id="48" value="" style="html=1;points=[];perimeter=orthogonalPerimeter;" vertex="1" parent="44">
                    <mxGeometry x="45" y="1080" width="10" height="110" as="geometry"/>
                </mxCell>
                <mxCell id="49" value="Change Order status to Canceled&amp;nbsp;" style="endArrow=open;html=1;rounded=0;align=center;verticalAlign=bottom;dashed=1;endFill=0;labelBackgroundColor=none;" edge="1" parent="44">
                    <mxGeometry relative="1" as="geometry">
                        <mxPoint x="39.5" y="1090" as="sourcePoint"/>
                        <mxPoint x="39.5" y="1150" as="targetPoint"/>
                        <Array as="points">
                            <mxPoint x="-59.75" y="1090"/>
                            <mxPoint x="-60" y="1150"/>
                        </Array>
                    </mxGeometry>
                </mxCell>
                <mxCell id="50" value="Change Order status to StockConfirmed" style="endArrow=open;html=1;rounded=0;align=center;verticalAlign=bottom;dashed=1;endFill=0;labelBackgroundColor=none;" edge="1" parent="44">
                    <mxGeometry relative="1" as="geometry">
                        <mxPoint x="45" y="960" as="sourcePoint"/>
                        <mxPoint x="45" y="1020" as="targetPoint"/>
                        <Array as="points">
                            <mxPoint x="-54.25" y="960"/>
                            <mxPoint x="-54.5" y="1020"/>
                        </Array>
                    </mxGeometry>
                </mxCell>
                <mxCell id="51" value="" style="html=1;points=[];perimeter=orthogonalPerimeter;" vertex="1" parent="44">
                    <mxGeometry x="45" y="1210" width="10" height="110" as="geometry"/>
                </mxCell>
                <mxCell id="52" value="Change Order status to Paid" style="endArrow=open;html=1;rounded=0;align=center;verticalAlign=bottom;dashed=1;endFill=0;labelBackgroundColor=none;" edge="1" parent="44">
                    <mxGeometry relative="1" as="geometry">
                        <mxPoint x="39.5" y="1220" as="sourcePoint"/>
                        <mxPoint x="39.5" y="1280" as="targetPoint"/>
                        <Array as="points">
                            <mxPoint x="-59.75" y="1220"/>
                            <mxPoint x="-60" y="1280"/>
                        </Array>
                    </mxGeometry>
                </mxCell>
                <mxCell id="53" value="" style="html=1;points=[];perimeter=orthogonalPerimeter;" vertex="1" parent="44">
                    <mxGeometry x="45" y="190" width="10" height="180" as="geometry"/>
                </mxCell>
                <mxCell id="vX0AaTOOjbRXFZJsMf_o-33" value="Via EventBus" style="text;html=1;align=center;verticalAlign=middle;resizable=0;points=[];autosize=1;strokeColor=none;fillColor=none;" parent="1" vertex="1">
                    <mxGeometry x="466" y="918" width="100" height="30" as="geometry"/>
                </mxCell>
                <mxCell id="0RYQkDIKPmP7uPoeJiNk-33" value="Create new Order" style="endArrow=open;html=1;rounded=0;align=center;verticalAlign=bottom;dashed=1;endFill=0;labelBackgroundColor=none;" parent="1" edge="1">
                    <mxGeometry relative="1" as="geometry">
                        <mxPoint x="109.5" y="810" as="sourcePoint"/>
                        <mxPoint x="110" y="881" as="targetPoint"/>
                        <Array as="points">
                            <mxPoint x="190" y="810"/>
                            <mxPoint x="190.5" y="881"/>
                        </Array>
                    </mxGeometry>
                </mxCell>
                <mxCell id="0RYQkDIKPmP7uPoeJiNk-34" value="Convert Basket to Order" style="resizable=0;html=1;align=center;verticalAlign=top;labelBackgroundColor=none;" parent="0RYQkDIKPmP7uPoeJiNk-33" connectable="0" vertex="1">
                    <mxGeometry relative="1" as="geometry"/>
                </mxCell>
                <mxCell id="0RYQkDIKPmP7uPoeJiNk-38" value="GetOrders" style="html=1;verticalAlign=bottom;labelBackgroundColor=none;endArrow=open;endFill=0;dashed=1;" parent="1" edge="1">
                    <mxGeometry width="160" relative="1" as="geometry">
                        <mxPoint x="110" y="1130" as="sourcePoint"/>
                        <mxPoint x="279.5" y="1130" as="targetPoint"/>
                    </mxGeometry>
                </mxCell>
                <mxCell id="0RYQkDIKPmP7uPoeJiNk-40" value="Return list of Order" style="html=1;verticalAlign=bottom;labelBackgroundColor=none;endArrow=open;endFill=0;dashed=1;entryX=0.5;entryY=0.908;entryDx=0;entryDy=0;entryPerimeter=0;" parent="1" edge="1">
                    <mxGeometry width="160" relative="1" as="geometry">
                        <mxPoint x="589.5" y="1181.76" as="sourcePoint"/>
                        <mxPoint x="280" y="1181.76" as="targetPoint"/>
                    </mxGeometry>
                </mxCell>
                <mxCell id="0RYQkDIKPmP7uPoeJiNk-41" value="List Of Order" style="html=1;verticalAlign=bottom;labelBackgroundColor=none;endArrow=open;endFill=0;dashed=1;" parent="1" edge="1">
                    <mxGeometry width="160" relative="1" as="geometry">
                        <mxPoint x="279.5" y="1204" as="sourcePoint"/>
                        <mxPoint x="109.5" y="1204" as="targetPoint"/>
                    </mxGeometry>
                </mxCell>
                <mxCell id="0RYQkDIKPmP7uPoeJiNk-42" value="GetConfirmedGracePeriodOrders Background Service" style="endArrow=open;html=1;rounded=0;align=center;verticalAlign=bottom;dashed=1;endFill=0;labelBackgroundColor=none;" parent="1" source="vX0AaTOOjbRXFZJsMf_o-31" target="vX0AaTOOjbRXFZJsMf_o-31" edge="1">
                    <mxGeometry relative="1" as="geometry">
                        <mxPoint x="410.25" y="1360" as="sourcePoint"/>
                        <mxPoint x="409.75" y="1400" as="targetPoint"/>
                        <Array as="points">
                            <mxPoint x="490.25" y="1360"/>
                            <mxPoint x="490" y="1420"/>
                        </Array>
                    </mxGeometry>
                </mxCell>
                <mxCell id="30" value="GetOrderById" style="html=1;verticalAlign=bottom;labelBackgroundColor=none;endArrow=open;endFill=0;dashed=1;" parent="1" edge="1">
                    <mxGeometry width="160" relative="1" as="geometry">
                        <mxPoint x="110" y="1250" as="sourcePoint"/>
                        <mxPoint x="279.5" y="1250" as="targetPoint"/>
                    </mxGeometry>
                </mxCell>
                <mxCell id="32" value="&amp;lt;&amp;lt;&amp;gt;&amp;gt;" style="html=1;verticalAlign=bottom;labelBackgroundColor=none;endArrow=open;endFill=0;dashed=1;" parent="1" edge="1">
                    <mxGeometry width="160" relative="1" as="geometry">
                        <mxPoint x="280" y="1270" as="sourcePoint"/>
                        <mxPoint x="589.5" y="1270" as="targetPoint"/>
                    </mxGeometry>
                </mxCell>
                <mxCell id="33" value="Return Order" style="html=1;verticalAlign=bottom;labelBackgroundColor=none;endArrow=open;endFill=0;dashed=1;entryX=0.5;entryY=0.908;entryDx=0;entryDy=0;entryPerimeter=0;" parent="1" edge="1">
                    <mxGeometry width="160" relative="1" as="geometry">
                        <mxPoint x="589.5" y="1310" as="sourcePoint"/>
                        <mxPoint x="280" y="1310" as="targetPoint"/>
                    </mxGeometry>
                </mxCell>
                <mxCell id="34" value="Order" style="html=1;verticalAlign=bottom;labelBackgroundColor=none;endArrow=open;endFill=0;dashed=1;" parent="1" edge="1">
                    <mxGeometry width="160" relative="1" as="geometry">
                        <mxPoint x="280" y="1340" as="sourcePoint"/>
                        <mxPoint x="110" y="1340" as="targetPoint"/>
                    </mxGeometry>
                </mxCell>
                <mxCell id="zEyvrWGxmt5BHy0DG9lD-35" value="Via EventBus" style="text;html=1;align=center;verticalAlign=middle;resizable=0;points=[];autosize=1;strokeColor=none;fillColor=none;" parent="1" vertex="1">
                    <mxGeometry x="690" y="1450" width="100" height="30" as="geometry"/>
                </mxCell>
                <mxCell id="zEyvrWGxmt5BHy0DG9lD-34" value="OrderStatusChangedToAwaitingValidationIntegrationEvent" style="html=1;verticalAlign=bottom;labelBackgroundColor=none;endArrow=open;endFill=0;dashed=1;" parent="1" edge="1">
                    <mxGeometry width="160" relative="1" as="geometry">
                        <mxPoint x="589.5" y="1455" as="sourcePoint"/>
                        <mxPoint x="900" y="1455" as="targetPoint"/>
                    </mxGeometry>
                </mxCell>
                <mxCell id="j-_fMtsc1cX8QUICQoGO-34" value="&lt;span style=&quot;font-size: 12px;&quot;&gt;OrderStockRejectedIntegrationEvent&lt;/span&gt;" style="html=1;verticalAlign=bottom;labelBackgroundColor=none;endArrow=open;endFill=0;dashed=1;strokeColor=#CC0000;" parent="1" edge="1">
                    <mxGeometry width="160" relative="1" as="geometry">
                        <mxPoint x="900" y="1520" as="sourcePoint"/>
                        <mxPoint x="600" y="1520" as="targetPoint"/>
                    </mxGeometry>
                </mxCell>
                <mxCell id="hu2RjoYyTsey--QGNp9i-34" value="Via EventBus" style="text;html=1;align=center;verticalAlign=middle;resizable=0;points=[];autosize=1;strokeColor=none;fillColor=none;" parent="1" vertex="1">
                    <mxGeometry x="692" y="1517" width="100" height="30" as="geometry"/>
                </mxCell>
                <mxCell id="hu2RjoYyTsey--QGNp9i-42" value="&lt;span style=&quot;font-size: 12px;&quot;&gt;OrderStockConfirmedIntegrationEvent&lt;/span&gt;" style="html=1;verticalAlign=bottom;labelBackgroundColor=none;endArrow=open;endFill=0;dashed=1;strokeColor=#0000CC;" parent="1" edge="1">
                    <mxGeometry width="160" relative="1" as="geometry">
                        <mxPoint x="900" y="1680" as="sourcePoint"/>
                        <mxPoint x="600" y="1680" as="targetPoint"/>
                    </mxGeometry>
                </mxCell>
                <mxCell id="hu2RjoYyTsey--QGNp9i-43" value="Via EventBus" style="text;html=1;align=center;verticalAlign=middle;resizable=0;points=[];autosize=1;strokeColor=none;fillColor=none;" parent="1" vertex="1">
                    <mxGeometry x="692" y="1680" width="100" height="30" as="geometry"/>
                </mxCell>
                <mxCell id="AvO_6vjt_rUgqWW4JwSH-35" value="Change Order status to Canceled&amp;nbsp;" style="endArrow=open;html=1;rounded=0;align=center;verticalAlign=bottom;dashed=1;endFill=0;labelBackgroundColor=none;" parent="1" edge="1">
                    <mxGeometry relative="1" as="geometry">
                        <mxPoint x="579.5" y="1510" as="sourcePoint"/>
                        <mxPoint x="579.5" y="1570" as="targetPoint"/>
                        <Array as="points">
                            <mxPoint x="480.25" y="1510"/>
                            <mxPoint x="480" y="1570"/>
                        </Array>
                    </mxGeometry>
                </mxCell>
                <mxCell id="AvO_6vjt_rUgqWW4JwSH-36" value="Notify to User" style="html=1;verticalAlign=bottom;labelBackgroundColor=none;endArrow=open;endFill=0;dashed=1;" parent="1" target="vX0AaTOOjbRXFZJsMf_o-28" edge="1">
                    <mxGeometry width="160" relative="1" as="geometry">
                        <mxPoint x="580" y="1600" as="sourcePoint"/>
                        <mxPoint x="140" y="1600" as="targetPoint"/>
                    </mxGeometry>
                </mxCell>
                <mxCell id="AvO_6vjt_rUgqWW4JwSH-37" value="Via SignalR" style="text;html=1;align=center;verticalAlign=middle;resizable=0;points=[];autosize=1;strokeColor=none;fillColor=none;" parent="1" vertex="1">
                    <mxGeometry x="295" y="1600" width="90" height="30" as="geometry"/>
                </mxCell>
                <mxCell id="FyEHZ94JGLxsrPab4Wa3-36" value="Payment Service" style="shape=umlLifeline;perimeter=lifelinePerimeter;whiteSpace=wrap;html=1;container=1;collapsible=0;recursiveResize=0;outlineConnect=0;lifelineDashed=0;" parent="1" vertex="1">
                    <mxGeometry x="1100" y="720" width="100" height="1340" as="geometry"/>
                </mxCell>
                <mxCell id="FyEHZ94JGLxsrPab4Wa3-37" value="" style="html=1;points=[];perimeter=orthogonalPerimeter;" parent="FyEHZ94JGLxsrPab4Wa3-36" vertex="1">
                    <mxGeometry x="45" y="1010" width="10" height="290" as="geometry"/>
                </mxCell>
                <mxCell id="FyEHZ94JGLxsrPab4Wa3-40" value="OrderStatusChangedToStockConfirmedIntegrationEvent" style="html=1;verticalAlign=bottom;labelBackgroundColor=none;endArrow=open;endFill=0;dashed=1;" parent="1" edge="1">
                    <mxGeometry width="160" relative="1" as="geometry">
                        <mxPoint x="600" y="1755" as="sourcePoint"/>
                        <mxPoint x="1140" y="1750" as="targetPoint"/>
                    </mxGeometry>
                </mxCell>
                <mxCell id="FyEHZ94JGLxsrPab4Wa3-41" value="&lt;span style=&quot;font-size: 12px;&quot;&gt;OrderPaymentFailedIntegrationEvent&lt;/span&gt;" style="html=1;verticalAlign=bottom;labelBackgroundColor=none;endArrow=open;endFill=0;dashed=1;strokeColor=#CC0000;entryX=1.5;entryY=0.394;entryDx=0;entryDy=0;entryPerimeter=0;" parent="1" target="FyEHZ94JGLxsrPab4Wa3-43" edge="1">
                    <mxGeometry width="160" relative="1" as="geometry">
                        <mxPoint x="1140" y="1843" as="sourcePoint"/>
                        <mxPoint x="840" y="1843" as="targetPoint"/>
                    </mxGeometry>
                </mxCell>
                <mxCell id="FyEHZ94JGLxsrPab4Wa3-46" value="Notify to User" style="html=1;verticalAlign=bottom;labelBackgroundColor=none;endArrow=open;endFill=0;dashed=1;" parent="1" edge="1">
                    <mxGeometry width="160" relative="1" as="geometry">
                        <mxPoint x="585.25" y="1890" as="sourcePoint"/>
                        <mxPoint x="114.75" y="1890" as="targetPoint"/>
                    </mxGeometry>
                </mxCell>
                <mxCell id="FyEHZ94JGLxsrPab4Wa3-47" value="Via SignalR" style="text;html=1;align=center;verticalAlign=middle;resizable=0;points=[];autosize=1;strokeColor=none;fillColor=none;" parent="1" vertex="1">
                    <mxGeometry x="300.25" y="1890" width="90" height="30" as="geometry"/>
                </mxCell>
                <mxCell id="FyEHZ94JGLxsrPab4Wa3-48" value="&lt;span style=&quot;font-size: 12px;&quot;&gt;OrderPaymentSucceededIntegrationEvent&lt;/span&gt;" style="html=1;verticalAlign=bottom;labelBackgroundColor=none;endArrow=open;endFill=0;dashed=1;strokeColor=#0000CC;" parent="1" edge="1">
                    <mxGeometry width="160" relative="1" as="geometry">
                        <mxPoint x="1140" y="1948" as="sourcePoint"/>
                        <mxPoint x="600" y="1948" as="targetPoint"/>
                    </mxGeometry>
                </mxCell>
                <mxCell id="FyEHZ94JGLxsrPab4Wa3-54" value="Via EventBus" style="text;html=1;align=center;verticalAlign=middle;resizable=0;points=[];autosize=1;strokeColor=none;fillColor=none;" parent="1" vertex="1">
                    <mxGeometry x="700" y="2010" width="100" height="30" as="geometry"/>
                </mxCell>
                <mxCell id="FyEHZ94JGLxsrPab4Wa3-55" value="OrderStatusChangedToPaidIntegrationEvent" style="html=1;verticalAlign=bottom;labelBackgroundColor=none;endArrow=open;endFill=0;dashed=1;" parent="1" edge="1">
                    <mxGeometry width="160" relative="1" as="geometry">
                        <mxPoint x="600" y="2015" as="sourcePoint"/>
                        <mxPoint x="900" y="2015" as="targetPoint"/>
                    </mxGeometry>
                </mxCell>
                <mxCell id="FyEHZ94JGLxsrPab4Wa3-56" value="Notify to User" style="html=1;verticalAlign=bottom;labelBackgroundColor=none;endArrow=open;endFill=0;dashed=1;exitX=-0.5;exitY=0.897;exitDx=0;exitDy=0;exitPerimeter=0;" parent="1" source="FyEHZ94JGLxsrPab4Wa3-51" target="vX0AaTOOjbRXFZJsMf_o-28" edge="1">
                    <mxGeometry width="160" relative="1" as="geometry">
                        <mxPoint x="600.5" y="2080" as="sourcePoint"/>
                        <mxPoint x="130" y="2080" as="targetPoint"/>
                    </mxGeometry>
                </mxCell>
                <mxCell id="FyEHZ94JGLxsrPab4Wa3-57" value="Via SignalR" style="text;html=1;align=center;verticalAlign=middle;resizable=0;points=[];autosize=1;strokeColor=none;fillColor=none;" parent="1" vertex="1">
                    <mxGeometry x="295" y="2030" width="90" height="30" as="geometry"/>
                </mxCell>
                <mxCell id="lnRM0Zmy5K07bJqfZbtn-34" value="Remove Stock from Catalog Item" style="endArrow=open;html=1;rounded=0;align=center;verticalAlign=bottom;dashed=1;endFill=0;labelBackgroundColor=none;" parent="1" edge="1">
                    <mxGeometry relative="1" as="geometry">
                        <mxPoint x="899.5" y="2050" as="sourcePoint"/>
                        <mxPoint x="899.5" y="2110" as="targetPoint"/>
                        <Array as="points">
                            <mxPoint x="800.25" y="2050"/>
                            <mxPoint x="800" y="2110"/>
                        </Array>
                    </mxGeometry>
                </mxCell>
                <mxCell id="lNKn7yxebGxFFtp7Wl8g-35" value="Set Status to Submitted and VerifyOrAdd Payment method" style="endArrow=open;html=1;rounded=0;align=center;verticalAlign=bottom;dashed=1;endFill=0;labelBackgroundColor=none;" parent="1" edge="1">
                    <mxGeometry relative="1" as="geometry">
                        <mxPoint x="579.5" y="1000" as="sourcePoint"/>
                        <mxPoint x="580" y="1050" as="targetPoint"/>
                        <Array as="points">
                            <mxPoint x="480.25" y="1000"/>
                            <mxPoint x="480" y="1050"/>
                        </Array>
                    </mxGeometry>
                </mxCell>
                <mxCell id="yKJeFpetjFTcQDDwQFMX-34" value="Notify to User (&lt;span style=&quot;font-size: 12px;&quot;&gt;OrderStatusChangedToSubmittedIntegrationEvent)&lt;/span&gt;" style="html=1;verticalAlign=bottom;labelBackgroundColor=none;endArrow=open;endFill=0;dashed=1;" parent="1" edge="1">
                    <mxGeometry width="160" relative="1" as="geometry">
                        <mxPoint x="580.5" y="1079" as="sourcePoint"/>
                        <mxPoint x="110" y="1079" as="targetPoint"/>
                    </mxGeometry>
                </mxCell>
                <mxCell id="yKJeFpetjFTcQDDwQFMX-35" value="Via SignalR" style="text;html=1;align=center;verticalAlign=middle;resizable=0;points=[];autosize=1;strokeColor=none;fillColor=none;" parent="1" vertex="1">
                    <mxGeometry x="295.5" y="1078" width="90" height="30" as="geometry"/>
                </mxCell>
                <mxCell id="2EtXU9p0EtEa4dIMnpt1-35" value="Remove Basket" style="endArrow=open;html=1;rounded=0;align=center;verticalAlign=bottom;dashed=1;endFill=0;labelBackgroundColor=none;" parent="1" edge="1">
                    <mxGeometry relative="1" as="geometry">
                        <mxPoint x="439.5" y="940" as="sourcePoint"/>
                        <mxPoint x="440" y="990" as="targetPoint"/>
                        <Array as="points">
                            <mxPoint x="340.25" y="940"/>
                            <mxPoint x="340" y="990"/>
                        </Array>
                    </mxGeometry>
                </mxCell>
            </root>
        </mxGraphModel>
    </diagram>
    <diagram id="5OYbsp5LLahScPlbIX7X" name="Ordering">
        <mxGraphModel dx="1836" dy="1527" grid="1" gridSize="10" guides="1" tooltips="1" connect="1" arrows="1" fold="1" page="1" pageScale="1" pageWidth="850" pageHeight="1100" math="0" shadow="0">
            <root>
                <mxCell id="0"/>
                <mxCell id="1" parent="0"/>
                <mxCell id="COvKn4K79OYHi69gzA5p-18" value="Mediator" style="shape=umlFrame;whiteSpace=wrap;html=1;width=120;height=30;boundedLbl=1;verticalAlign=middle;align=left;spacingLeft=5;strokeColor=#000000;fillColor=none;" parent="1" vertex="1">
                    <mxGeometry x="480" y="310" width="450" height="710" as="geometry"/>
                </mxCell>
                <mxCell id="COvKn4K79OYHi69gzA5p-19" value="EventBus" style="shape=umlFrame;whiteSpace=wrap;html=1;width=120;height=30;boundedLbl=1;verticalAlign=middle;align=left;spacingLeft=5;strokeColor=#000000;fillColor=none;" parent="1" vertex="1">
                    <mxGeometry x="1070" y="310" width="390" height="710" as="geometry"/>
                </mxCell>
                <mxCell id="D_qnQtUg7BtzJVpgdr-l-1" value="Vision Statement" style="shape=umlFrame;whiteSpace=wrap;html=1;width=120;height=30;boundedLbl=1;verticalAlign=middle;align=left;spacingLeft=5;" parent="1" vertex="1">
                    <mxGeometry x="330" y="-290" width="220" height="120" as="geometry"/>
                </mxCell>
                <mxCell id="D_qnQtUg7BtzJVpgdr-l-2" value="+ Creating&lt;br&gt;+ Status Management&lt;br&gt;+ History&lt;br&gt;+ Report" style="text;html=1;strokeColor=none;fillColor=none;align=left;verticalAlign=middle;whiteSpace=wrap;rounded=0;" parent="1" vertex="1">
                    <mxGeometry x="330" y="-250" width="220" height="80" as="geometry"/>
                </mxCell>
                <mxCell id="D_qnQtUg7BtzJVpgdr-l-3" value="Order" style="swimlane;fontStyle=0;childLayout=stackLayout;horizontal=1;startSize=26;fillColor=none;horizontalStack=0;resizeParent=1;resizeParentMax=0;resizeLast=0;collapsible=1;marginBottom=0;" parent="1" vertex="1">
                    <mxGeometry x="60" y="44" width="330" height="736" as="geometry">
                        <mxRectangle x="60" y="44" width="70" height="30" as="alternateBounds"/>
                    </mxGeometry>
                </mxCell>
                <mxCell id="D_qnQtUg7BtzJVpgdr-l-4" value="- _orderDate" style="text;strokeColor=none;fillColor=none;align=left;verticalAlign=top;spacingLeft=4;spacingRight=4;overflow=hidden;rotatable=0;points=[[0,0.5],[1,0.5]];portConstraint=eastwest;" parent="D_qnQtUg7BtzJVpgdr-l-3" vertex="1">
                    <mxGeometry y="26" width="330" height="26" as="geometry"/>
                </mxCell>
                <mxCell id="D_qnQtUg7BtzJVpgdr-l-5" value="+ Address" style="text;strokeColor=none;fillColor=none;align=left;verticalAlign=top;spacingLeft=4;spacingRight=4;overflow=hidden;rotatable=0;points=[[0,0.5],[1,0.5]];portConstraint=eastwest;" parent="D_qnQtUg7BtzJVpgdr-l-3" vertex="1">
                    <mxGeometry y="52" width="330" height="26" as="geometry"/>
                </mxCell>
                <mxCell id="D_qnQtUg7BtzJVpgdr-l-6" value="- _buyerId" style="text;strokeColor=none;fillColor=none;align=left;verticalAlign=top;spacingLeft=4;spacingRight=4;overflow=hidden;rotatable=0;points=[[0,0.5],[1,0.5]];portConstraint=eastwest;" parent="D_qnQtUg7BtzJVpgdr-l-3" vertex="1">
                    <mxGeometry y="78" width="330" height="26" as="geometry"/>
                </mxCell>
                <mxCell id="nSuNwWTAX6cR8DjuX8VU-15" value="+ GetBuyerId" style="text;strokeColor=none;fillColor=none;align=left;verticalAlign=top;spacingLeft=4;spacingRight=4;overflow=hidden;rotatable=0;points=[[0,0.5],[1,0.5]];portConstraint=eastwest;" parent="D_qnQtUg7BtzJVpgdr-l-3" vertex="1">
                    <mxGeometry y="104" width="330" height="26" as="geometry"/>
                </mxCell>
                <mxCell id="nSuNwWTAX6cR8DjuX8VU-22" value="- _orderStatusId" style="text;strokeColor=none;fillColor=none;align=left;verticalAlign=top;spacingLeft=4;spacingRight=4;overflow=hidden;rotatable=0;points=[[0,0.5],[1,0.5]];portConstraint=eastwest;" parent="D_qnQtUg7BtzJVpgdr-l-3" vertex="1">
                    <mxGeometry y="130" width="330" height="26" as="geometry"/>
                </mxCell>
                <mxCell id="nSuNwWTAX6cR8DjuX8VU-23" value="+ OrderStatus" style="text;strokeColor=none;fillColor=none;align=left;verticalAlign=top;spacingLeft=4;spacingRight=4;overflow=hidden;rotatable=0;points=[[0,0.5],[1,0.5]];portConstraint=eastwest;" parent="D_qnQtUg7BtzJVpgdr-l-3" vertex="1">
                    <mxGeometry y="156" width="330" height="26" as="geometry"/>
                </mxCell>
                <mxCell id="nSuNwWTAX6cR8DjuX8VU-24" value="- _description" style="text;strokeColor=none;fillColor=none;align=left;verticalAlign=top;spacingLeft=4;spacingRight=4;overflow=hidden;rotatable=0;points=[[0,0.5],[1,0.5]];portConstraint=eastwest;" parent="D_qnQtUg7BtzJVpgdr-l-3" vertex="1">
                    <mxGeometry y="182" width="330" height="26" as="geometry"/>
                </mxCell>
                <mxCell id="nSuNwWTAX6cR8DjuX8VU-25" value="- _isDraft" style="text;strokeColor=none;fillColor=none;align=left;verticalAlign=top;spacingLeft=4;spacingRight=4;overflow=hidden;rotatable=0;points=[[0,0.5],[1,0.5]];portConstraint=eastwest;" parent="D_qnQtUg7BtzJVpgdr-l-3" vertex="1">
                    <mxGeometry y="208" width="330" height="26" as="geometry"/>
                </mxCell>
                <mxCell id="nSuNwWTAX6cR8DjuX8VU-33" value="- _orderItems" style="text;strokeColor=none;fillColor=none;align=left;verticalAlign=top;spacingLeft=4;spacingRight=4;overflow=hidden;rotatable=0;points=[[0,0.5],[1,0.5]];portConstraint=eastwest;" parent="D_qnQtUg7BtzJVpgdr-l-3" vertex="1">
                    <mxGeometry y="234" width="330" height="26" as="geometry"/>
                </mxCell>
                <mxCell id="nSuNwWTAX6cR8DjuX8VU-34" value="+ OrderItems" style="text;strokeColor=none;fillColor=none;align=left;verticalAlign=top;spacingLeft=4;spacingRight=4;overflow=hidden;rotatable=0;points=[[0,0.5],[1,0.5]];portConstraint=eastwest;" parent="D_qnQtUg7BtzJVpgdr-l-3" vertex="1">
                    <mxGeometry y="260" width="330" height="26" as="geometry"/>
                </mxCell>
                <mxCell id="nSuNwWTAX6cR8DjuX8VU-35" value="- _paymentMethodId" style="text;strokeColor=none;fillColor=none;align=left;verticalAlign=top;spacingLeft=4;spacingRight=4;overflow=hidden;rotatable=0;points=[[0,0.5],[1,0.5]];portConstraint=eastwest;" parent="D_qnQtUg7BtzJVpgdr-l-3" vertex="1">
                    <mxGeometry y="286" width="330" height="26" as="geometry"/>
                </mxCell>
                <mxCell id="nSuNwWTAX6cR8DjuX8VU-36" value="+ NewDraft()" style="text;strokeColor=none;fillColor=none;align=left;verticalAlign=top;spacingLeft=4;spacingRight=4;overflow=hidden;rotatable=0;points=[[0,0.5],[1,0.5]];portConstraint=eastwest;" parent="D_qnQtUg7BtzJVpgdr-l-3" vertex="1">
                    <mxGeometry y="312" width="330" height="26" as="geometry"/>
                </mxCell>
                <mxCell id="nSuNwWTAX6cR8DjuX8VU-30" value="+ Order(...) { AddDomainEvent&#10;(OrderStartedDomainEvent), OrderStatus = Submitted }" style="text;strokeColor=none;fillColor=none;align=left;verticalAlign=top;spacingLeft=4;spacingRight=4;overflow=hidden;rotatable=0;points=[[0,0.5],[1,0.5]];portConstraint=eastwest;" parent="D_qnQtUg7BtzJVpgdr-l-3" vertex="1">
                    <mxGeometry y="338" width="330" height="36" as="geometry"/>
                </mxCell>
                <mxCell id="nSuNwWTAX6cR8DjuX8VU-38" value="+ AddOrderItem()" style="text;strokeColor=none;fillColor=none;align=left;verticalAlign=top;spacingLeft=4;spacingRight=4;overflow=hidden;rotatable=0;points=[[0,0.5],[1,0.5]];portConstraint=eastwest;" parent="D_qnQtUg7BtzJVpgdr-l-3" vertex="1">
                    <mxGeometry y="374" width="330" height="26" as="geometry"/>
                </mxCell>
                <mxCell id="1UZKOR-IHOwDjoZPSToj-1" value="+ SetPaymentId()" style="text;strokeColor=none;fillColor=none;align=left;verticalAlign=top;spacingLeft=4;spacingRight=4;overflow=hidden;rotatable=0;points=[[0,0.5],[1,0.5]];portConstraint=eastwest;" parent="D_qnQtUg7BtzJVpgdr-l-3" vertex="1">
                    <mxGeometry y="400" width="330" height="26" as="geometry"/>
                </mxCell>
                <mxCell id="nSuNwWTAX6cR8DjuX8VU-39" value="+ SetBuyerId()" style="text;strokeColor=none;fillColor=none;align=left;verticalAlign=top;spacingLeft=4;spacingRight=4;overflow=hidden;rotatable=0;points=[[0,0.5],[1,0.5]];portConstraint=eastwest;" parent="D_qnQtUg7BtzJVpgdr-l-3" vertex="1">
                    <mxGeometry y="426" width="330" height="26" as="geometry"/>
                </mxCell>
                <mxCell id="43sjBppJRwZzoMKFEpUe-1" value="+ SetAwaitingValidationStatus(): {&#10;AddDomainEvent(&#10;OrderStatusChangedToAwaitingValidationDomainEvent)}&#10;" style="text;strokeColor=none;fillColor=none;align=left;verticalAlign=top;spacingLeft=4;spacingRight=4;overflow=hidden;rotatable=0;points=[[0,0.5],[1,0.5]];portConstraint=eastwest;" parent="D_qnQtUg7BtzJVpgdr-l-3" vertex="1">
                    <mxGeometry y="452" width="330" height="54" as="geometry"/>
                </mxCell>
                <mxCell id="43sjBppJRwZzoMKFEpUe-2" value="+ SetStockConfirmedStatus(): {&#10;AddDomainEvent(&#10;OrderStatusChangedToStockConfirmedDomainEvent)}" style="text;strokeColor=none;fillColor=none;align=left;verticalAlign=top;spacingLeft=4;spacingRight=4;overflow=hidden;rotatable=0;points=[[0,0.5],[1,0.5]];portConstraint=eastwest;" parent="D_qnQtUg7BtzJVpgdr-l-3" vertex="1">
                    <mxGeometry y="506" width="330" height="60" as="geometry"/>
                </mxCell>
                <mxCell id="43sjBppJRwZzoMKFEpUe-3" value="+ SetPaidStatus(): {&#10;AddDomainEvent(&#10;OrderStatusChangedToPaidDomainEvent)}&#10;" style="text;strokeColor=none;fillColor=none;align=left;verticalAlign=top;spacingLeft=4;spacingRight=4;overflow=hidden;rotatable=0;points=[[0,0.5],[1,0.5]];portConstraint=eastwest;" parent="D_qnQtUg7BtzJVpgdr-l-3" vertex="1">
                    <mxGeometry y="566" width="330" height="60" as="geometry"/>
                </mxCell>
                <mxCell id="43sjBppJRwZzoMKFEpUe-5" value="+ SetShippedStatus(): {&#10;AddDomainEvent(OrderShippedDomainEvent)}" style="text;strokeColor=none;fillColor=none;align=left;verticalAlign=top;spacingLeft=4;spacingRight=4;overflow=hidden;rotatable=0;points=[[0,0.5],[1,0.5]];portConstraint=eastwest;" parent="D_qnQtUg7BtzJVpgdr-l-3" vertex="1">
                    <mxGeometry y="626" width="330" height="40" as="geometry"/>
                </mxCell>
                <mxCell id="43sjBppJRwZzoMKFEpUe-6" value="+ SetCancelledStatus(): {&#10;AddDomainEvent(OrderCancelledDomainEvent)}" style="text;strokeColor=none;fillColor=none;align=left;verticalAlign=top;spacingLeft=4;spacingRight=4;overflow=hidden;rotatable=0;points=[[0,0.5],[1,0.5]];portConstraint=eastwest;" parent="D_qnQtUg7BtzJVpgdr-l-3" vertex="1">
                    <mxGeometry y="666" width="330" height="40" as="geometry"/>
                </mxCell>
                <mxCell id="43sjBppJRwZzoMKFEpUe-7" value="+ SetCancelledStatusWhenStockIsRejected(): { }" style="text;strokeColor=none;fillColor=none;align=left;verticalAlign=top;spacingLeft=4;spacingRight=4;overflow=hidden;rotatable=0;points=[[0,0.5],[1,0.5]];portConstraint=eastwest;" parent="D_qnQtUg7BtzJVpgdr-l-3" vertex="1">
                    <mxGeometry y="706" width="330" height="30" as="geometry"/>
                </mxCell>
                <mxCell id="D_qnQtUg7BtzJVpgdr-l-7" value="OrderItem" style="swimlane;fontStyle=0;childLayout=stackLayout;horizontal=1;startSize=26;fillColor=none;horizontalStack=0;resizeParent=1;resizeParentMax=0;resizeLast=0;collapsible=1;marginBottom=0;" parent="1" vertex="1">
                    <mxGeometry x="670" y="-150" width="190" height="364" as="geometry">
                        <mxRectangle x="60" y="230" width="70" height="30" as="alternateBounds"/>
                    </mxGeometry>
                </mxCell>
                <mxCell id="D_qnQtUg7BtzJVpgdr-l-8" value="- _productName" style="text;strokeColor=none;fillColor=none;align=left;verticalAlign=top;spacingLeft=4;spacingRight=4;overflow=hidden;rotatable=0;points=[[0,0.5],[1,0.5]];portConstraint=eastwest;" parent="D_qnQtUg7BtzJVpgdr-l-7" vertex="1">
                    <mxGeometry y="26" width="190" height="26" as="geometry"/>
                </mxCell>
                <mxCell id="D_qnQtUg7BtzJVpgdr-l-9" value="- _pictureUrl" style="text;strokeColor=none;fillColor=none;align=left;verticalAlign=top;spacingLeft=4;spacingRight=4;overflow=hidden;rotatable=0;points=[[0,0.5],[1,0.5]];portConstraint=eastwest;" parent="D_qnQtUg7BtzJVpgdr-l-7" vertex="1">
                    <mxGeometry y="52" width="190" height="26" as="geometry"/>
                </mxCell>
                <mxCell id="D_qnQtUg7BtzJVpgdr-l-10" value="- _unitPrice" style="text;strokeColor=none;fillColor=none;align=left;verticalAlign=top;spacingLeft=4;spacingRight=4;overflow=hidden;rotatable=0;points=[[0,0.5],[1,0.5]];portConstraint=eastwest;" parent="D_qnQtUg7BtzJVpgdr-l-7" vertex="1">
                    <mxGeometry y="78" width="190" height="26" as="geometry"/>
                </mxCell>
                <mxCell id="rxtixymxEC1kdDPE24KG-9" value="- _discount" style="text;strokeColor=none;fillColor=none;align=left;verticalAlign=top;spacingLeft=4;spacingRight=4;overflow=hidden;rotatable=0;points=[[0,0.5],[1,0.5]];portConstraint=eastwest;" parent="D_qnQtUg7BtzJVpgdr-l-7" vertex="1">
                    <mxGeometry y="104" width="190" height="26" as="geometry"/>
                </mxCell>
                <mxCell id="rxtixymxEC1kdDPE24KG-10" value="- _units" style="text;strokeColor=none;fillColor=none;align=left;verticalAlign=top;spacingLeft=4;spacingRight=4;overflow=hidden;rotatable=0;points=[[0,0.5],[1,0.5]];portConstraint=eastwest;" parent="D_qnQtUg7BtzJVpgdr-l-7" vertex="1">
                    <mxGeometry y="130" width="190" height="26" as="geometry"/>
                </mxCell>
                <mxCell id="rxtixymxEC1kdDPE24KG-11" value="+ ProductId" style="text;strokeColor=none;fillColor=none;align=left;verticalAlign=top;spacingLeft=4;spacingRight=4;overflow=hidden;rotatable=0;points=[[0,0.5],[1,0.5]];portConstraint=eastwest;" parent="D_qnQtUg7BtzJVpgdr-l-7" vertex="1">
                    <mxGeometry y="156" width="190" height="26" as="geometry"/>
                </mxCell>
                <mxCell id="rxtixymxEC1kdDPE24KG-12" value="+ GetPictureUri()" style="text;strokeColor=none;fillColor=none;align=left;verticalAlign=top;spacingLeft=4;spacingRight=4;overflow=hidden;rotatable=0;points=[[0,0.5],[1,0.5]];portConstraint=eastwest;" parent="D_qnQtUg7BtzJVpgdr-l-7" vertex="1">
                    <mxGeometry y="182" width="190" height="26" as="geometry"/>
                </mxCell>
                <mxCell id="rxtixymxEC1kdDPE24KG-21" value="+ GetCurrentDiscount()" style="text;strokeColor=none;fillColor=none;align=left;verticalAlign=top;spacingLeft=4;spacingRight=4;overflow=hidden;rotatable=0;points=[[0,0.5],[1,0.5]];portConstraint=eastwest;" parent="D_qnQtUg7BtzJVpgdr-l-7" vertex="1">
                    <mxGeometry y="208" width="190" height="26" as="geometry"/>
                </mxCell>
                <mxCell id="rxtixymxEC1kdDPE24KG-22" value="+ GetUnits()" style="text;strokeColor=none;fillColor=none;align=left;verticalAlign=top;spacingLeft=4;spacingRight=4;overflow=hidden;rotatable=0;points=[[0,0.5],[1,0.5]];portConstraint=eastwest;" parent="D_qnQtUg7BtzJVpgdr-l-7" vertex="1">
                    <mxGeometry y="234" width="190" height="26" as="geometry"/>
                </mxCell>
                <mxCell id="rxtixymxEC1kdDPE24KG-23" value="+ GetUnitPrice()" style="text;strokeColor=none;fillColor=none;align=left;verticalAlign=top;spacingLeft=4;spacingRight=4;overflow=hidden;rotatable=0;points=[[0,0.5],[1,0.5]];portConstraint=eastwest;" parent="D_qnQtUg7BtzJVpgdr-l-7" vertex="1">
                    <mxGeometry y="260" width="190" height="26" as="geometry"/>
                </mxCell>
                <mxCell id="rxtixymxEC1kdDPE24KG-24" value="+ GetOrderItemProductName()" style="text;strokeColor=none;fillColor=none;align=left;verticalAlign=top;spacingLeft=4;spacingRight=4;overflow=hidden;rotatable=0;points=[[0,0.5],[1,0.5]];portConstraint=eastwest;" parent="D_qnQtUg7BtzJVpgdr-l-7" vertex="1">
                    <mxGeometry y="286" width="190" height="26" as="geometry"/>
                </mxCell>
                <mxCell id="rxtixymxEC1kdDPE24KG-25" value="+ SetNewDiscount()" style="text;strokeColor=none;fillColor=none;align=left;verticalAlign=top;spacingLeft=4;spacingRight=4;overflow=hidden;rotatable=0;points=[[0,0.5],[1,0.5]];portConstraint=eastwest;" parent="D_qnQtUg7BtzJVpgdr-l-7" vertex="1">
                    <mxGeometry y="312" width="190" height="26" as="geometry"/>
                </mxCell>
                <mxCell id="rxtixymxEC1kdDPE24KG-26" value="+ AddUnits()" style="text;strokeColor=none;fillColor=none;align=left;verticalAlign=top;spacingLeft=4;spacingRight=4;overflow=hidden;rotatable=0;points=[[0,0.5],[1,0.5]];portConstraint=eastwest;" parent="D_qnQtUg7BtzJVpgdr-l-7" vertex="1">
                    <mxGeometry y="338" width="190" height="26" as="geometry"/>
                </mxCell>
                <mxCell id="D_qnQtUg7BtzJVpgdr-l-11" value="" style="curved=1;endArrow=classic;html=1;exitX=1;exitY=0.5;exitDx=0;exitDy=0;entryX=-0.02;entryY=0.173;entryDx=0;entryDy=0;entryPerimeter=0;" parent="1" source="nSuNwWTAX6cR8DjuX8VU-34" target="D_qnQtUg7BtzJVpgdr-l-7" edge="1">
                    <mxGeometry width="50" height="50" relative="1" as="geometry">
                        <mxPoint x="230" y="300" as="sourcePoint"/>
                        <mxPoint x="340" y="160" as="targetPoint"/>
                        <Array as="points">
                            <mxPoint x="480" y="290"/>
                            <mxPoint x="520" y="220"/>
                            <mxPoint x="630" y="220"/>
                        </Array>
                    </mxGeometry>
                </mxCell>
                <mxCell id="D_qnQtUg7BtzJVpgdr-l-20" value="Buyer" style="swimlane;fontStyle=0;childLayout=stackLayout;horizontal=1;startSize=26;fillColor=none;horizontalStack=0;resizeParent=1;resizeParentMax=0;resizeLast=0;collapsible=1;marginBottom=0;" parent="1" vertex="1">
                    <mxGeometry x="-400" y="770" width="280" height="210" as="geometry">
                        <mxRectangle x="60" y="230" width="70" height="30" as="alternateBounds"/>
                    </mxGeometry>
                </mxCell>
                <mxCell id="D_qnQtUg7BtzJVpgdr-l-21" value="+ IdentityGuid" style="text;strokeColor=none;fillColor=none;align=left;verticalAlign=top;spacingLeft=4;spacingRight=4;overflow=hidden;rotatable=0;points=[[0,0.5],[1,0.5]];portConstraint=eastwest;" parent="D_qnQtUg7BtzJVpgdr-l-20" vertex="1">
                    <mxGeometry y="26" width="280" height="26" as="geometry"/>
                </mxCell>
                <mxCell id="nSuNwWTAX6cR8DjuX8VU-1" value="+ Name" style="text;strokeColor=none;fillColor=none;align=left;verticalAlign=top;spacingLeft=4;spacingRight=4;overflow=hidden;rotatable=0;points=[[0,0.5],[1,0.5]];portConstraint=eastwest;" parent="D_qnQtUg7BtzJVpgdr-l-20" vertex="1">
                    <mxGeometry y="52" width="280" height="24" as="geometry"/>
                </mxCell>
                <mxCell id="nSuNwWTAX6cR8DjuX8VU-3" value="- _paymentMethods" style="text;strokeColor=none;fillColor=none;align=left;verticalAlign=top;spacingLeft=4;spacingRight=4;overflow=hidden;rotatable=0;points=[[0,0.5],[1,0.5]];portConstraint=eastwest;" parent="D_qnQtUg7BtzJVpgdr-l-20" vertex="1">
                    <mxGeometry y="76" width="280" height="24" as="geometry"/>
                </mxCell>
                <mxCell id="nSuNwWTAX6cR8DjuX8VU-2" value="+ PaymentMethods" style="text;strokeColor=none;fillColor=none;align=left;verticalAlign=top;spacingLeft=4;spacingRight=4;overflow=hidden;rotatable=0;points=[[0,0.5],[1,0.5]];portConstraint=eastwest;" parent="D_qnQtUg7BtzJVpgdr-l-20" vertex="1">
                    <mxGeometry y="100" width="280" height="24" as="geometry"/>
                </mxCell>
                <mxCell id="nSuNwWTAX6cR8DjuX8VU-4" value="+ VerifyOrAddPaymentMethod(cardTypeId,&#10;alias, cardNumber, securityNumber, &#10;cardHolderName, expiration, orderId)&#10;: { AddDomainEvent(&#10;BuyerAndPaymentMethodVerifiedDomainEvent)}" style="text;strokeColor=none;fillColor=none;align=left;verticalAlign=top;spacingLeft=4;spacingRight=4;overflow=hidden;rotatable=0;points=[[0,0.5],[1,0.5]];portConstraint=eastwest;" parent="D_qnQtUg7BtzJVpgdr-l-20" vertex="1">
                    <mxGeometry y="124" width="280" height="86" as="geometry"/>
                </mxCell>
                <mxCell id="D_qnQtUg7BtzJVpgdr-l-26" value="" style="curved=1;endArrow=classic;html=1;exitX=0;exitY=0.5;exitDx=0;exitDy=0;entryX=0.5;entryY=0;entryDx=0;entryDy=0;" parent="1" source="D_qnQtUg7BtzJVpgdr-l-6" target="D_qnQtUg7BtzJVpgdr-l-20" edge="1">
                    <mxGeometry width="50" height="50" relative="1" as="geometry">
                        <mxPoint x="20" y="407.01" as="sourcePoint"/>
                        <mxPoint x="196.5999999999999" y="360.00199999999995" as="targetPoint"/>
                        <Array as="points">
                            <mxPoint x="-10" y="330"/>
                            <mxPoint x="-30" y="400"/>
                            <mxPoint x="-30" y="450"/>
                        </Array>
                    </mxGeometry>
                </mxCell>
                <mxCell id="nSuNwWTAX6cR8DjuX8VU-5" value="Entity" style="swimlane;fontStyle=0;childLayout=stackLayout;horizontal=1;startSize=26;fillColor=none;horizontalStack=0;resizeParent=1;resizeParentMax=0;resizeLast=0;collapsible=1;marginBottom=0;" parent="1" vertex="1">
                    <mxGeometry x="-540" y="-193" width="220" height="208" as="geometry">
                        <mxRectangle x="60" y="230" width="70" height="30" as="alternateBounds"/>
                    </mxGeometry>
                </mxCell>
                <mxCell id="nSuNwWTAX6cR8DjuX8VU-6" value="+ Id" style="text;strokeColor=none;fillColor=none;align=left;verticalAlign=top;spacingLeft=4;spacingRight=4;overflow=hidden;rotatable=0;points=[[0,0.5],[1,0.5]];portConstraint=eastwest;" parent="nSuNwWTAX6cR8DjuX8VU-5" vertex="1">
                    <mxGeometry y="26" width="220" height="26" as="geometry"/>
                </mxCell>
                <mxCell id="nSuNwWTAX6cR8DjuX8VU-7" value="- _domainEvents" style="text;strokeColor=none;fillColor=none;align=left;verticalAlign=top;spacingLeft=4;spacingRight=4;overflow=hidden;rotatable=0;points=[[0,0.5],[1,0.5]];portConstraint=eastwest;" parent="nSuNwWTAX6cR8DjuX8VU-5" vertex="1">
                    <mxGeometry y="52" width="220" height="26" as="geometry"/>
                </mxCell>
                <mxCell id="nSuNwWTAX6cR8DjuX8VU-8" value="+ DomainEvents" style="text;strokeColor=none;fillColor=none;align=left;verticalAlign=top;spacingLeft=4;spacingRight=4;overflow=hidden;rotatable=0;points=[[0,0.5],[1,0.5]];portConstraint=eastwest;" parent="nSuNwWTAX6cR8DjuX8VU-5" vertex="1">
                    <mxGeometry y="78" width="220" height="26" as="geometry"/>
                </mxCell>
                <mxCell id="nSuNwWTAX6cR8DjuX8VU-10" value="+ AddDomainEvent(eventItem)" style="text;strokeColor=none;fillColor=none;align=left;verticalAlign=top;spacingLeft=4;spacingRight=4;overflow=hidden;rotatable=0;points=[[0,0.5],[1,0.5]];portConstraint=eastwest;" parent="nSuNwWTAX6cR8DjuX8VU-5" vertex="1">
                    <mxGeometry y="104" width="220" height="26" as="geometry"/>
                </mxCell>
                <mxCell id="nSuNwWTAX6cR8DjuX8VU-11" value="+ RemoveDomainEvent(eventItem)" style="text;strokeColor=none;fillColor=none;align=left;verticalAlign=top;spacingLeft=4;spacingRight=4;overflow=hidden;rotatable=0;points=[[0,0.5],[1,0.5]];portConstraint=eastwest;" parent="nSuNwWTAX6cR8DjuX8VU-5" vertex="1">
                    <mxGeometry y="130" width="220" height="26" as="geometry"/>
                </mxCell>
                <mxCell id="nSuNwWTAX6cR8DjuX8VU-12" value="+ ClearDomainEvents()" style="text;strokeColor=none;fillColor=none;align=left;verticalAlign=top;spacingLeft=4;spacingRight=4;overflow=hidden;rotatable=0;points=[[0,0.5],[1,0.5]];portConstraint=eastwest;" parent="nSuNwWTAX6cR8DjuX8VU-5" vertex="1">
                    <mxGeometry y="156" width="220" height="26" as="geometry"/>
                </mxCell>
                <mxCell id="nSuNwWTAX6cR8DjuX8VU-13" value="+ IsTransient()" style="text;strokeColor=none;fillColor=none;align=left;verticalAlign=top;spacingLeft=4;spacingRight=4;overflow=hidden;rotatable=0;points=[[0,0.5],[1,0.5]];portConstraint=eastwest;" parent="nSuNwWTAX6cR8DjuX8VU-5" vertex="1">
                    <mxGeometry y="182" width="220" height="26" as="geometry"/>
                </mxCell>
                <mxCell id="nSuNwWTAX6cR8DjuX8VU-9" value="&amp;lt;&amp;lt;extend&amp;gt;&amp;gt;" style="html=1;verticalAlign=bottom;labelBackgroundColor=none;endArrow=open;endFill=0;dashed=1;entryX=0.7;entryY=1.064;entryDx=0;entryDy=0;exitX=0;exitY=0;exitDx=0;exitDy=0;entryPerimeter=0;" parent="1" source="D_qnQtUg7BtzJVpgdr-l-20" target="nSuNwWTAX6cR8DjuX8VU-13" edge="1">
                    <mxGeometry width="160" relative="1" as="geometry">
                        <mxPoint x="380" y="360" as="sourcePoint"/>
                        <mxPoint x="540" y="360" as="targetPoint"/>
                    </mxGeometry>
                </mxCell>
                <mxCell id="nSuNwWTAX6cR8DjuX8VU-14" value="&amp;lt;&amp;lt;extend&amp;gt;&amp;gt;" style="html=1;verticalAlign=bottom;labelBackgroundColor=none;endArrow=open;endFill=0;dashed=1;entryX=1.018;entryY=0.095;entryDx=0;entryDy=0;exitX=0;exitY=0;exitDx=0;exitDy=0;entryPerimeter=0;" parent="1" source="D_qnQtUg7BtzJVpgdr-l-3" target="nSuNwWTAX6cR8DjuX8VU-5" edge="1">
                    <mxGeometry width="160" relative="1" as="geometry">
                        <mxPoint x="170" y="488" as="sourcePoint"/>
                        <mxPoint x="-140" y="270" as="targetPoint"/>
                    </mxGeometry>
                </mxCell>
                <mxCell id="nSuNwWTAX6cR8DjuX8VU-29" value="" style="shape=mxgraph.cisco.misc.mediator;html=1;pointerEvents=1;dashed=0;fillColor=#036897;strokeColor=#ffffff;strokeWidth=2;verticalLabelPosition=bottom;verticalAlign=top;align=center;outlineConnect=0;" parent="1" vertex="1">
                    <mxGeometry x="-50" y="-260" width="74" height="82" as="geometry"/>
                </mxCell>
                <mxCell id="nSuNwWTAX6cR8DjuX8VU-32" value="Push events from Entity.DomainEvents to Mediator when SaveChanges" style="text;html=1;strokeColor=none;fillColor=yellow;align=center;verticalAlign=middle;whiteSpace=wrap;rounded=0;" parent="1" vertex="1">
                    <mxGeometry x="50" y="-249" width="190" height="60" as="geometry"/>
                </mxCell>
                <mxCell id="wCkT4mrdJlf6aHxRcfmU-2" style="edgeStyle=none;html=1;entryX=0;entryY=0.75;entryDx=0;entryDy=0;" parent="1" source="43sjBppJRwZzoMKFEpUe-1" target="COvKn4K79OYHi69gzA5p-2" edge="1">
                    <mxGeometry relative="1" as="geometry">
                        <mxPoint x="540" y="523.6237623762377" as="targetPoint"/>
                    </mxGeometry>
                </mxCell>
                <mxCell id="COvKn4K79OYHi69gzA5p-4" value="" style="edgeStyle=none;html=1;" parent="1" source="COvKn4K79OYHi69gzA5p-2" target="COvKn4K79OYHi69gzA5p-3" edge="1">
                    <mxGeometry relative="1" as="geometry"/>
                </mxCell>
                <mxCell id="COvKn4K79OYHi69gzA5p-2" value="OrderStatusChangedToAwaitingValidationDomainEventHandler" style="text;html=1;strokeColor=none;fillColor=#99FF99;align=center;verticalAlign=middle;whiteSpace=wrap;rounded=0;" parent="1" vertex="1">
                    <mxGeometry x="540" y="440" width="360" height="30" as="geometry"/>
                </mxCell>
                <mxCell id="COvKn4K79OYHi69gzA5p-6" value="" style="edgeStyle=none;html=1;exitX=1;exitY=0.5;exitDx=0;exitDy=0;" parent="1" source="COvKn4K79OYHi69gzA5p-3" target="COvKn4K79OYHi69gzA5p-5" edge="1">
                    <mxGeometry relative="1" as="geometry"/>
                </mxCell>
                <mxCell id="COvKn4K79OYHi69gzA5p-9" style="edgeStyle=none;html=1;entryX=1;entryY=0.5;entryDx=0;entryDy=0;" parent="1" source="COvKn4K79OYHi69gzA5p-5" target="rxtixymxEC1kdDPE24KG-27" edge="1">
                    <mxGeometry relative="1" as="geometry"/>
                </mxCell>
                <mxCell id="COvKn4K79OYHi69gzA5p-3" value="OrderStatusChangedToAwaitingValidationIntegrationEvent" style="whiteSpace=wrap;html=1;fillColor=#FFFF99;strokeColor=none;gradientColor=none;rounded=0;" parent="1" vertex="1">
                    <mxGeometry x="1090" y="410" width="330" height="40" as="geometry"/>
                </mxCell>
                <mxCell id="COvKn4K79OYHi69gzA5p-5" value="Catalog&lt;br&gt;Context" style="ellipse;whiteSpace=wrap;html=1;fillColor=#66FFFF;strokeColor=none;gradientColor=none;rounded=0;" parent="1" vertex="1">
                    <mxGeometry x="1600" y="518" width="80" height="80" as="geometry"/>
                </mxCell>
                <mxCell id="COvKn4K79OYHi69gzA5p-12" style="edgeStyle=none;html=1;entryX=1;entryY=0.5;entryDx=0;entryDy=0;" parent="1" source="COvKn4K79OYHi69gzA5p-8" target="COvKn4K79OYHi69gzA5p-14" edge="1">
                    <mxGeometry relative="1" as="geometry"/>
                </mxCell>
                <mxCell id="COvKn4K79OYHi69gzA5p-13" style="edgeStyle=none;html=1;entryX=1;entryY=0.5;entryDx=0;entryDy=0;exitX=0;exitY=0.5;exitDx=0;exitDy=0;" parent="1" source="COvKn4K79OYHi69gzA5p-10" target="43sjBppJRwZzoMKFEpUe-2" edge="1">
                    <mxGeometry relative="1" as="geometry"/>
                </mxCell>
                <mxCell id="rxtixymxEC1kdDPE24KG-7" style="edgeStyle=none;html=1;entryX=0;entryY=0;entryDx=0;entryDy=0;exitX=1;exitY=0.5;exitDx=0;exitDy=0;" parent="1" source="iJlemrntf6fi_3o-tTd2-1" target="rxtixymxEC1kdDPE24KG-6" edge="1">
                    <mxGeometry relative="1" as="geometry"/>
                </mxCell>
                <mxCell id="COvKn4K79OYHi69gzA5p-8" value="OrderStockConfirmedIntegrationEventHandler" style="whiteSpace=wrap;html=1;fillColor=#FFFF99;strokeColor=none;gradientColor=none;rounded=0;" parent="1" vertex="1">
                    <mxGeometry x="1100" y="520" width="330" height="40" as="geometry"/>
                </mxCell>
                <mxCell id="COvKn4K79OYHi69gzA5p-10" value="SetStockConfirmedOrderStatusCommandHandler" style="text;html=1;strokeColor=none;fillColor=#99FF99;align=center;verticalAlign=middle;whiteSpace=wrap;rounded=0;" parent="1" vertex="1">
                    <mxGeometry x="535" y="535" width="360" height="30" as="geometry"/>
                </mxCell>
                <mxCell id="COvKn4K79OYHi69gzA5p-16" style="edgeStyle=none;html=1;entryX=0.5;entryY=0;entryDx=0;entryDy=0;" parent="1" source="COvKn4K79OYHi69gzA5p-14" target="COvKn4K79OYHi69gzA5p-10" edge="1">
                    <mxGeometry relative="1" as="geometry"/>
                </mxCell>
                <mxCell id="COvKn4K79OYHi69gzA5p-14" value="SetStockConfirmedOrderStatusCommand" style="text;html=1;strokeColor=none;fillColor=#FFB366;align=center;verticalAlign=middle;whiteSpace=wrap;rounded=0;" parent="1" vertex="1">
                    <mxGeometry x="590" y="488" width="250" height="30" as="geometry"/>
                </mxCell>
                <mxCell id="rxtixymxEC1kdDPE24KG-5" style="edgeStyle=none;html=1;" parent="1" source="rxtixymxEC1kdDPE24KG-1" target="rxtixymxEC1kdDPE24KG-4" edge="1">
                    <mxGeometry relative="1" as="geometry"/>
                </mxCell>
                <mxCell id="rxtixymxEC1kdDPE24KG-1" value="OrderStatusChangedToPaidDomainEventHandler" style="text;html=1;strokeColor=none;fillColor=#99FF99;align=center;verticalAlign=middle;whiteSpace=wrap;rounded=0;" parent="1" vertex="1">
                    <mxGeometry x="540" y="660" width="360" height="30" as="geometry"/>
                </mxCell>
                <mxCell id="rxtixymxEC1kdDPE24KG-3" style="edgeStyle=none;html=1;entryX=0;entryY=0.5;entryDx=0;entryDy=0;" parent="1" source="43sjBppJRwZzoMKFEpUe-3" target="rxtixymxEC1kdDPE24KG-1" edge="1">
                    <mxGeometry relative="1" as="geometry"/>
                </mxCell>
                <mxCell id="rxtixymxEC1kdDPE24KG-29" style="edgeStyle=none;html=1;entryX=0;entryY=1;entryDx=0;entryDy=0;exitX=1;exitY=0.25;exitDx=0;exitDy=0;" parent="1" source="rxtixymxEC1kdDPE24KG-4" target="COvKn4K79OYHi69gzA5p-5" edge="1">
                    <mxGeometry relative="1" as="geometry"/>
                </mxCell>
                <mxCell id="rxtixymxEC1kdDPE24KG-4" value="OrderStatusChangedToPaidIntegrationEvent" style="whiteSpace=wrap;html=1;fillColor=#FFFF99;strokeColor=none;gradientColor=none;rounded=0;" parent="1" vertex="1">
                    <mxGeometry x="1110" y="655" width="330" height="40" as="geometry"/>
                </mxCell>
                <mxCell id="rxtixymxEC1kdDPE24KG-6" value="Payment&lt;br&gt;Context" style="ellipse;whiteSpace=wrap;html=1;fillColor=#66FFFF;strokeColor=none;gradientColor=none;rounded=0;" parent="1" vertex="1">
                    <mxGeometry x="1600" y="615" width="80" height="80" as="geometry"/>
                </mxCell>
                <mxCell id="rxtixymxEC1kdDPE24KG-28" style="edgeStyle=none;html=1;" parent="1" source="rxtixymxEC1kdDPE24KG-27" target="COvKn4K79OYHi69gzA5p-8" edge="1">
                    <mxGeometry relative="1" as="geometry"/>
                </mxCell>
                <mxCell id="rxtixymxEC1kdDPE24KG-27" value="OrderStockConfirmedIntegrationEvent" style="text;html=1;strokeColor=none;fillColor=#FFB366;align=center;verticalAlign=middle;whiteSpace=wrap;rounded=0;" parent="1" vertex="1">
                    <mxGeometry x="1140" y="470" width="250" height="30" as="geometry"/>
                </mxCell>
                <mxCell id="WpaENEqXQmXwyno70BNc-4" style="edgeStyle=none;html=1;" parent="1" source="WpaENEqXQmXwyno70BNc-1" target="WpaENEqXQmXwyno70BNc-2" edge="1">
                    <mxGeometry relative="1" as="geometry"/>
                </mxCell>
                <mxCell id="WpaENEqXQmXwyno70BNc-1" value="OrderShippedDomainEventHandler" style="text;html=1;strokeColor=none;fillColor=#99FF99;align=center;verticalAlign=middle;whiteSpace=wrap;rounded=0;" parent="1" vertex="1">
                    <mxGeometry x="540" y="720" width="360" height="30" as="geometry"/>
                </mxCell>
                <mxCell id="WpaENEqXQmXwyno70BNc-7" style="edgeStyle=none;html=1;entryX=0;entryY=0.5;entryDx=0;entryDy=0;" parent="1" source="WpaENEqXQmXwyno70BNc-2" target="WpaENEqXQmXwyno70BNc-5" edge="1">
                    <mxGeometry relative="1" as="geometry"/>
                </mxCell>
                <mxCell id="WpaENEqXQmXwyno70BNc-8" style="edgeStyle=none;html=1;entryX=0;entryY=0.5;entryDx=0;entryDy=0;exitX=1;exitY=0.75;exitDx=0;exitDy=0;" parent="1" source="WpaENEqXQmXwyno70BNc-2" target="WpaENEqXQmXwyno70BNc-6" edge="1">
                    <mxGeometry relative="1" as="geometry"/>
                </mxCell>
                <mxCell id="WpaENEqXQmXwyno70BNc-2" value="OrderStatusChangedToShippedIntegrationEvent" style="whiteSpace=wrap;html=1;fillColor=#FFFF99;strokeColor=none;gradientColor=none;rounded=0;" parent="1" vertex="1">
                    <mxGeometry x="1110" y="715" width="330" height="40" as="geometry"/>
                </mxCell>
                <mxCell id="WpaENEqXQmXwyno70BNc-3" style="edgeStyle=none;html=1;entryX=0;entryY=0.5;entryDx=0;entryDy=0;exitX=1;exitY=0.5;exitDx=0;exitDy=0;" parent="1" source="43sjBppJRwZzoMKFEpUe-5" target="WpaENEqXQmXwyno70BNc-1" edge="1">
                    <mxGeometry relative="1" as="geometry"/>
                </mxCell>
                <mxCell id="WpaENEqXQmXwyno70BNc-5" value="SignalR" style="ellipse;whiteSpace=wrap;html=1;fillColor=#66FFFF;strokeColor=none;gradientColor=none;rounded=0;" parent="1" vertex="1">
                    <mxGeometry x="1600" y="720" width="80" height="80" as="geometry"/>
                </mxCell>
                <mxCell id="WpaENEqXQmXwyno70BNc-6" value="Webhook" style="ellipse;whiteSpace=wrap;html=1;fillColor=#66FFFF;strokeColor=none;gradientColor=none;rounded=0;" parent="1" vertex="1">
                    <mxGeometry x="1600" y="850" width="80" height="80" as="geometry"/>
                </mxCell>
                <mxCell id="nP47Uy8uASxiqIhZ4EsG-4" style="edgeStyle=none;html=1;entryX=0;entryY=0.5;entryDx=0;entryDy=0;" parent="1" source="nP47Uy8uASxiqIhZ4EsG-1" target="nP47Uy8uASxiqIhZ4EsG-3" edge="1">
                    <mxGeometry relative="1" as="geometry"/>
                </mxCell>
                <mxCell id="nP47Uy8uASxiqIhZ4EsG-1" value="OrderCancelledDomainEventHandler" style="text;html=1;strokeColor=none;fillColor=#99FF99;align=center;verticalAlign=middle;whiteSpace=wrap;rounded=0;" parent="1" vertex="1">
                    <mxGeometry x="540" y="770" width="360" height="30" as="geometry"/>
                </mxCell>
                <mxCell id="nP47Uy8uASxiqIhZ4EsG-2" style="edgeStyle=none;html=1;entryX=0;entryY=0.5;entryDx=0;entryDy=0;exitX=1;exitY=0.5;exitDx=0;exitDy=0;" parent="1" source="43sjBppJRwZzoMKFEpUe-6" target="nP47Uy8uASxiqIhZ4EsG-1" edge="1">
                    <mxGeometry relative="1" as="geometry"/>
                </mxCell>
                <mxCell id="nP47Uy8uASxiqIhZ4EsG-5" style="edgeStyle=none;html=1;entryX=0.008;entryY=0.625;entryDx=0;entryDy=0;entryPerimeter=0;" parent="1" source="nP47Uy8uASxiqIhZ4EsG-3" target="WpaENEqXQmXwyno70BNc-5" edge="1">
                    <mxGeometry relative="1" as="geometry"/>
                </mxCell>
                <mxCell id="nP47Uy8uASxiqIhZ4EsG-3" value="OrderStatusChangedToCancelledIntegrationEvent" style="whiteSpace=wrap;html=1;fillColor=#FFFF99;strokeColor=none;gradientColor=none;rounded=0;" parent="1" vertex="1">
                    <mxGeometry x="1110" y="765" width="330" height="40" as="geometry"/>
                </mxCell>
                <mxCell id="nP47Uy8uASxiqIhZ4EsG-6" value="&amp;lt;&amp;lt;extend&amp;gt;&amp;gt;" style="html=1;verticalAlign=bottom;labelBackgroundColor=none;endArrow=open;endFill=0;dashed=1;entryX=1;entryY=0;entryDx=0;entryDy=0;exitX=0;exitY=0.055;exitDx=0;exitDy=0;exitPerimeter=0;" parent="1" source="D_qnQtUg7BtzJVpgdr-l-7" target="nSuNwWTAX6cR8DjuX8VU-5" edge="1">
                    <mxGeometry width="160" relative="1" as="geometry">
                        <mxPoint x="70" y="54" as="sourcePoint"/>
                        <mxPoint x="-345" y="400" as="targetPoint"/>
                    </mxGeometry>
                </mxCell>
                <mxCell id="2PklS687qiUe0cApcnTn-4" style="edgeStyle=none;html=1;entryX=0;entryY=0.5;entryDx=0;entryDy=0;" parent="1" source="2PklS687qiUe0cApcnTn-1" target="2PklS687qiUe0cApcnTn-3" edge="1">
                    <mxGeometry relative="1" as="geometry"/>
                </mxCell>
                <mxCell id="2PklS687qiUe0cApcnTn-1" value="ValidateOrAddBuyerAggregateWhenOrderStartedDomainEventHandler" style="text;html=1;strokeColor=none;fillColor=#99FF99;align=center;verticalAlign=middle;whiteSpace=wrap;rounded=0;" parent="1" vertex="1">
                    <mxGeometry x="525" y="870" width="390" height="30" as="geometry"/>
                </mxCell>
                <mxCell id="2PklS687qiUe0cApcnTn-2" style="edgeStyle=none;html=1;entryX=0;entryY=0.5;entryDx=0;entryDy=0;" parent="1" source="nSuNwWTAX6cR8DjuX8VU-4" target="2PklS687qiUe0cApcnTn-1" edge="1">
                    <mxGeometry relative="1" as="geometry"/>
                </mxCell>
                <mxCell id="2PklS687qiUe0cApcnTn-5" style="edgeStyle=none;html=1;entryX=0;entryY=1;entryDx=0;entryDy=0;exitX=1;exitY=0.25;exitDx=0;exitDy=0;" parent="1" source="2PklS687qiUe0cApcnTn-3" target="WpaENEqXQmXwyno70BNc-5" edge="1">
                    <mxGeometry relative="1" as="geometry"/>
                </mxCell>
                <mxCell id="2PklS687qiUe0cApcnTn-6" style="edgeStyle=none;html=1;entryX=0;entryY=0.5;entryDx=0;entryDy=0;" parent="1" source="2PklS687qiUe0cApcnTn-3" target="WpaENEqXQmXwyno70BNc-6" edge="1">
                    <mxGeometry relative="1" as="geometry"/>
                </mxCell>
                <mxCell id="2PklS687qiUe0cApcnTn-3" value="OrderStatusChangedToSubmittedIntegrationEvent" style="whiteSpace=wrap;html=1;fillColor=#FFFF99;strokeColor=none;gradientColor=none;rounded=0;" parent="1" vertex="1">
                    <mxGeometry x="1110" y="865" width="330" height="40" as="geometry"/>
                </mxCell>
                <mxCell id="o-eNg4nAXRbO96N6-zTy-4" style="edgeStyle=none;html=1;entryX=0.786;entryY=-0.008;entryDx=0;entryDy=0;entryPerimeter=0;" parent="1" source="o-eNg4nAXRbO96N6-zTy-2" target="nSuNwWTAX6cR8DjuX8VU-4" edge="1">
                    <mxGeometry relative="1" as="geometry"/>
                </mxCell>
                <mxCell id="o-eNg4nAXRbO96N6-zTy-2" value="ValidateOrAddBuyerAggregateWhenOrderStartedDomainEventHandler" style="text;html=1;strokeColor=none;fillColor=#99FF99;align=center;verticalAlign=middle;whiteSpace=wrap;rounded=0;" parent="1" vertex="1">
                    <mxGeometry x="525" y="380" width="380" height="30" as="geometry"/>
                </mxCell>
                <mxCell id="o-eNg4nAXRbO96N6-zTy-3" style="edgeStyle=none;html=1;entryX=0;entryY=0.5;entryDx=0;entryDy=0;" parent="1" source="nSuNwWTAX6cR8DjuX8VU-30" target="o-eNg4nAXRbO96N6-zTy-2" edge="1">
                    <mxGeometry relative="1" as="geometry"/>
                </mxCell>
                <mxCell id="iJlemrntf6fi_3o-tTd2-1" value="OrderStatusChangedToStockConfirmedIntegrationEvent" style="whiteSpace=wrap;html=1;fillColor=#FFFF99;strokeColor=none;gradientColor=none;rounded=0;" parent="1" vertex="1">
                    <mxGeometry x="1100" y="590" width="330" height="40" as="geometry"/>
                </mxCell>
                <mxCell id="iJlemrntf6fi_3o-tTd2-4" style="edgeStyle=none;html=1;entryX=0;entryY=0.5;entryDx=0;entryDy=0;" parent="1" source="iJlemrntf6fi_3o-tTd2-2" target="iJlemrntf6fi_3o-tTd2-1" edge="1">
                    <mxGeometry relative="1" as="geometry"/>
                </mxCell>
                <mxCell id="iJlemrntf6fi_3o-tTd2-2" value="OrderStatusChangedToStockConfirmedDomainEventHandler" style="text;html=1;strokeColor=none;fillColor=#99FF99;align=center;verticalAlign=middle;whiteSpace=wrap;rounded=0;" parent="1" vertex="1">
                    <mxGeometry x="535" y="598" width="360" height="30" as="geometry"/>
                </mxCell>
                <mxCell id="iJlemrntf6fi_3o-tTd2-3" style="edgeStyle=none;html=1;entryX=0;entryY=0.5;entryDx=0;entryDy=0;" parent="1" source="43sjBppJRwZzoMKFEpUe-2" target="iJlemrntf6fi_3o-tTd2-2" edge="1">
                    <mxGeometry relative="1" as="geometry"/>
                </mxCell>
            </root>
        </mxGraphModel>
    </diagram>
    <diagram id="Vpb-fHtvPDZ1IoWW5C_i" name="Cart Flow">
        <mxGraphModel dx="1836" dy="427" grid="1" gridSize="10" guides="1" tooltips="1" connect="1" arrows="1" fold="1" page="1" pageScale="1" pageWidth="850" pageHeight="1100" math="0" shadow="0">
            <root>
                <mxCell id="0"/>
                <mxCell id="1" parent="0"/>
                <mxCell id="hQiOi25zcO3KQVBeuI6I-1" value="Catalog Service" style="shape=umlLifeline;perimeter=lifelinePerimeter;whiteSpace=wrap;html=1;container=1;collapsible=0;recursiveResize=0;outlineConnect=0;lifelineDashed=0;" vertex="1" parent="1">
                    <mxGeometry x="860" y="720" width="100" height="1450" as="geometry"/>
                </mxCell>
                <mxCell id="hQiOi25zcO3KQVBeuI6I-7" value="Client User" style="shape=umlLifeline;perimeter=lifelinePerimeter;whiteSpace=wrap;html=1;container=1;collapsible=0;recursiveResize=0;outlineConnect=0;" vertex="1" parent="hQiOi25zcO3KQVBeuI6I-1">
                    <mxGeometry x="-800" width="100" height="1450" as="geometry"/>
                </mxCell>
                <mxCell id="hQiOi25zcO3KQVBeuI6I-9" value="Add Item to Cart" style="html=1;verticalAlign=bottom;labelBackgroundColor=none;endArrow=open;endFill=0;dashed=1;" edge="1" parent="hQiOi25zcO3KQVBeuI6I-7">
                    <mxGeometry width="160" relative="1" as="geometry">
                        <mxPoint x="50" y="80" as="sourcePoint"/>
                        <mxPoint x="210" y="80" as="targetPoint"/>
                    </mxGeometry>
                </mxCell>
                <mxCell id="hQiOi25zcO3KQVBeuI6I-11" value="API Gateway" style="shape=umlLifeline;perimeter=lifelinePerimeter;whiteSpace=wrap;html=1;container=1;collapsible=0;recursiveResize=0;outlineConnect=0;lifelineDashed=0;" vertex="1" parent="hQiOi25zcO3KQVBeuI6I-1">
                    <mxGeometry x="-630" width="100" height="720" as="geometry"/>
                </mxCell>
                <mxCell id="hQiOi25zcO3KQVBeuI6I-28" value="" style="html=1;points=[];perimeter=orthogonalPerimeter;" vertex="1" parent="hQiOi25zcO3KQVBeuI6I-11">
                    <mxGeometry x="45" y="70" width="10" height="490" as="geometry"/>
                </mxCell>
                <mxCell id="hQiOi25zcO3KQVBeuI6I-30" value="Add Item to basket" style="endArrow=open;html=1;rounded=0;align=center;verticalAlign=bottom;dashed=1;endFill=0;labelBackgroundColor=none;" edge="1" parent="hQiOi25zcO3KQVBeuI6I-11">
                    <mxGeometry relative="1" as="geometry">
                        <mxPoint x="45" y="410" as="sourcePoint"/>
                        <mxPoint x="44.5" y="450" as="targetPoint"/>
                        <Array as="points">
                            <mxPoint x="-15.5" y="410"/>
                            <mxPoint x="-15.5" y="450"/>
                        </Array>
                    </mxGeometry>
                </mxCell>
                <mxCell id="5TsOQIe1bTIeQ5Y7_pXy-2" value="" style="html=1;points=[];perimeter=orthogonalPerimeter;" vertex="1" parent="hQiOi25zcO3KQVBeuI6I-11">
                    <mxGeometry x="50" y="300" width="10" height="70" as="geometry"/>
                </mxCell>
                <mxCell id="hQiOi25zcO3KQVBeuI6I-12" value="Basket Service" style="shape=umlLifeline;perimeter=lifelinePerimeter;whiteSpace=wrap;html=1;container=1;collapsible=0;recursiveResize=0;outlineConnect=0;lifelineDashed=0;" vertex="1" parent="hQiOi25zcO3KQVBeuI6I-1">
                    <mxGeometry x="-460" width="100" height="680" as="geometry"/>
                </mxCell>
                <mxCell id="hQiOi25zcO3KQVBeuI6I-15" value="" style="html=1;points=[];perimeter=orthogonalPerimeter;" vertex="1" parent="hQiOi25zcO3KQVBeuI6I-12">
                    <mxGeometry x="45" y="70" width="10" height="160" as="geometry"/>
                </mxCell>
                <mxCell id="5TsOQIe1bTIeQ5Y7_pXy-5" value="" style="html=1;points=[];perimeter=orthogonalPerimeter;" vertex="1" parent="hQiOi25zcO3KQVBeuI6I-12">
                    <mxGeometry x="45" y="400" width="10" height="160" as="geometry"/>
                </mxCell>
                <mxCell id="5TsOQIe1bTIeQ5Y7_pXy-7" value="Successful" style="html=1;verticalAlign=bottom;labelBackgroundColor=none;endArrow=open;endFill=0;dashed=1;" edge="1" parent="hQiOi25zcO3KQVBeuI6I-12">
                    <mxGeometry width="160" relative="1" as="geometry">
                        <mxPoint x="40" y="520" as="sourcePoint"/>
                        <mxPoint x="-110" y="520" as="targetPoint"/>
                    </mxGeometry>
                </mxCell>
                <mxCell id="hQiOi25zcO3KQVBeuI6I-16" value="Catalog Service" style="shape=umlLifeline;perimeter=lifelinePerimeter;whiteSpace=wrap;html=1;container=1;collapsible=0;recursiveResize=0;outlineConnect=0;lifelineDashed=0;" vertex="1" parent="hQiOi25zcO3KQVBeuI6I-1">
                    <mxGeometry x="-320" width="100" height="1340" as="geometry"/>
                </mxCell>
                <mxCell id="hQiOi25zcO3KQVBeuI6I-25" value="" style="html=1;points=[];perimeter=orthogonalPerimeter;" vertex="1" parent="hQiOi25zcO3KQVBeuI6I-16">
                    <mxGeometry x="45" y="260" width="10" height="260" as="geometry"/>
                </mxCell>
                <mxCell id="5TsOQIe1bTIeQ5Y7_pXy-4" value="Return Product" style="html=1;verticalAlign=bottom;labelBackgroundColor=none;endArrow=open;endFill=0;dashed=1;exitX=-0.433;exitY=0.788;exitDx=0;exitDy=0;exitPerimeter=0;" edge="1" parent="hQiOi25zcO3KQVBeuI6I-16">
                    <mxGeometry width="160" relative="1" as="geometry">
                        <mxPoint x="45.000000000000114" y="390" as="sourcePoint"/>
                        <mxPoint x="-250" y="390" as="targetPoint"/>
                    </mxGeometry>
                </mxCell>
                <mxCell id="hQiOi25zcO3KQVBeuI6I-13" value="Get Basket By UserId" style="html=1;verticalAlign=bottom;labelBackgroundColor=none;endArrow=open;endFill=0;dashed=1;entryX=0.5;entryY=0.118;entryDx=0;entryDy=0;entryPerimeter=0;" edge="1" parent="hQiOi25zcO3KQVBeuI6I-1" target="hQiOi25zcO3KQVBeuI6I-15">
                    <mxGeometry width="160" relative="1" as="geometry">
                        <mxPoint x="-570" y="90" as="sourcePoint"/>
                        <mxPoint x="-420" y="90" as="targetPoint"/>
                    </mxGeometry>
                </mxCell>
                <mxCell id="hQiOi25zcO3KQVBeuI6I-27" value="Basket not found" style="html=1;verticalAlign=bottom;labelBackgroundColor=none;endArrow=open;endFill=0;dashed=1;strokeColor=#FF0000;" edge="1" parent="hQiOi25zcO3KQVBeuI6I-1">
                    <mxGeometry width="160" relative="1" as="geometry">
                        <mxPoint x="-420" y="124" as="sourcePoint"/>
                        <mxPoint x="-570" y="124" as="targetPoint"/>
                    </mxGeometry>
                </mxCell>
                <mxCell id="hQiOi25zcO3KQVBeuI6I-17" value="Return Basket" style="html=1;verticalAlign=bottom;labelBackgroundColor=none;endArrow=open;endFill=0;dashed=1;exitX=-0.433;exitY=0.788;exitDx=0;exitDy=0;exitPerimeter=0;" edge="1" parent="hQiOi25zcO3KQVBeuI6I-1" source="hQiOi25zcO3KQVBeuI6I-15" target="hQiOi25zcO3KQVBeuI6I-28">
                    <mxGeometry width="160" relative="1" as="geometry">
                        <mxPoint x="-400" y="202" as="sourcePoint"/>
                        <mxPoint x="-280" y="202" as="targetPoint"/>
                    </mxGeometry>
                </mxCell>
                <mxCell id="5TsOQIe1bTIeQ5Y7_pXy-1" value="Product not found" style="html=1;verticalAlign=bottom;labelBackgroundColor=none;endArrow=open;endFill=0;dashed=1;strokeColor=#FF0000;" edge="1" parent="hQiOi25zcO3KQVBeuI6I-1" source="hQiOi25zcO3KQVBeuI6I-16">
                    <mxGeometry width="160" relative="1" as="geometry">
                        <mxPoint x="-332.16999999999996" y="320" as="sourcePoint"/>
                        <mxPoint x="-570" y="320" as="targetPoint"/>
                    </mxGeometry>
                </mxCell>
                <mxCell id="5TsOQIe1bTIeQ5Y7_pXy-6" value="Update Basket" style="html=1;verticalAlign=bottom;labelBackgroundColor=none;endArrow=open;endFill=0;dashed=1;" edge="1" parent="hQiOi25zcO3KQVBeuI6I-1">
                    <mxGeometry width="160" relative="1" as="geometry">
                        <mxPoint x="-570" y="480" as="sourcePoint"/>
                        <mxPoint x="-420" y="480" as="targetPoint"/>
                    </mxGeometry>
                </mxCell>
                <mxCell id="hQiOi25zcO3KQVBeuI6I-29" value="Create basket" style="endArrow=open;html=1;rounded=0;align=center;verticalAlign=bottom;dashed=1;endFill=0;labelBackgroundColor=none;" edge="1" parent="1">
                    <mxGeometry relative="1" as="geometry">
                        <mxPoint x="270.5" y="856" as="sourcePoint"/>
                        <mxPoint x="270" y="896" as="targetPoint"/>
                        <Array as="points">
                            <mxPoint x="210" y="856"/>
                            <mxPoint x="210" y="896"/>
                        </Array>
                    </mxGeometry>
                </mxCell>
                <mxCell id="hQiOi25zcO3KQVBeuI6I-32" value="Get Product By Id" style="html=1;verticalAlign=bottom;labelBackgroundColor=none;endArrow=open;endFill=0;dashed=1;" edge="1" parent="1">
                    <mxGeometry width="160" relative="1" as="geometry">
                        <mxPoint x="290" y="991.12" as="sourcePoint"/>
                        <mxPoint x="580" y="991" as="targetPoint"/>
                    </mxGeometry>
                </mxCell>
                <mxCell id="5TsOQIe1bTIeQ5Y7_pXy-3" value="Return Not Found Error" style="html=1;verticalAlign=bottom;labelBackgroundColor=none;endArrow=open;endFill=0;dashed=1;exitX=0;exitY=0.714;exitDx=0;exitDy=0;exitPerimeter=0;strokeColor=#FF0000;" edge="1" parent="1" source="5TsOQIe1bTIeQ5Y7_pXy-2">
                    <mxGeometry width="160" relative="1" as="geometry">
                        <mxPoint x="265.6700000000001" y="1070" as="sourcePoint"/>
                        <mxPoint x="110" y="1070" as="targetPoint"/>
                    </mxGeometry>
                </mxCell>
                <mxCell id="5TsOQIe1bTIeQ5Y7_pXy-8" value="Successful" style="html=1;verticalAlign=bottom;labelBackgroundColor=none;endArrow=open;endFill=0;dashed=1;" edge="1" parent="1">
                    <mxGeometry width="160" relative="1" as="geometry">
                        <mxPoint x="270" y="1250" as="sourcePoint"/>
                        <mxPoint x="110" y="1250" as="targetPoint"/>
                    </mxGeometry>
                </mxCell>
                <mxCell id="5TsOQIe1bTIeQ5Y7_pXy-9" value="Added Item to basket" style="endArrow=open;html=1;rounded=0;align=center;verticalAlign=bottom;dashed=1;endFill=0;labelBackgroundColor=none;" edge="1" parent="1">
                    <mxGeometry relative="1" as="geometry">
                        <mxPoint x="100.5" y="1280" as="sourcePoint"/>
                        <mxPoint x="100" y="1320" as="targetPoint"/>
                        <Array as="points">
                            <mxPoint x="40" y="1280"/>
                            <mxPoint x="40" y="1320"/>
                        </Array>
                    </mxGeometry>
                </mxCell>
            </root>
        </mxGraphModel>
    </diagram>
    <diagram id="HcLpO3q7rq8GoBI76C6v" name="Development Flow">
        <mxGraphModel dx="986" dy="427" grid="1" gridSize="10" guides="1" tooltips="1" connect="1" arrows="1" fold="1" page="1" pageScale="1" pageWidth="850" pageHeight="1100" math="0" shadow="0">
            <root>
                <mxCell id="0"/>
                <mxCell id="1" parent="0"/>
                <mxCell id="hbKmOejq8FoYTneG4BsR-3" value="" style="edgeStyle=none;html=1;strokeColor=#FF0000;" edge="1" parent="1" source="hbKmOejq8FoYTneG4BsR-1" target="hbKmOejq8FoYTneG4BsR-2">
                    <mxGeometry relative="1" as="geometry"/>
                </mxCell>
                <mxCell id="hbKmOejq8FoYTneG4BsR-1" value="Requirement" style="rounded=1;whiteSpace=wrap;html=1;" vertex="1" parent="1">
                    <mxGeometry x="220" y="130" width="120" height="60" as="geometry"/>
                </mxCell>
                <mxCell id="hbKmOejq8FoYTneG4BsR-5" value="" style="edgeStyle=none;html=1;strokeColor=#FF0000;" edge="1" parent="1" source="hbKmOejq8FoYTneG4BsR-2" target="hbKmOejq8FoYTneG4BsR-4">
                    <mxGeometry relative="1" as="geometry"/>
                </mxCell>
                <mxCell id="hbKmOejq8FoYTneG4BsR-2" value="Flow" style="rounded=1;whiteSpace=wrap;html=1;" vertex="1" parent="1">
                    <mxGeometry x="420" y="130" width="120" height="60" as="geometry"/>
                </mxCell>
                <mxCell id="hbKmOejq8FoYTneG4BsR-7" value="" style="edgeStyle=none;html=1;strokeColor=#FF0000;" edge="1" parent="1" source="hbKmOejq8FoYTneG4BsR-4" target="hbKmOejq8FoYTneG4BsR-6">
                    <mxGeometry relative="1" as="geometry"/>
                </mxCell>
                <mxCell id="hbKmOejq8FoYTneG4BsR-4" value="Service Functions" style="whiteSpace=wrap;html=1;rounded=1;" vertex="1" parent="1">
                    <mxGeometry x="620" y="130" width="120" height="60" as="geometry"/>
                </mxCell>
                <mxCell id="hbKmOejq8FoYTneG4BsR-9" value="" style="edgeStyle=none;html=1;strokeColor=#FF0000;" edge="1" parent="1" source="hbKmOejq8FoYTneG4BsR-6" target="hbKmOejq8FoYTneG4BsR-8">
                    <mxGeometry relative="1" as="geometry"/>
                </mxCell>
                <mxCell id="hbKmOejq8FoYTneG4BsR-17" style="edgeStyle=none;html=1;entryX=1;entryY=1;entryDx=0;entryDy=0;strokeColor=#FF0000;" edge="1" parent="1" source="hbKmOejq8FoYTneG4BsR-6" target="hbKmOejq8FoYTneG4BsR-1">
                    <mxGeometry relative="1" as="geometry"/>
                </mxCell>
                <mxCell id="hbKmOejq8FoYTneG4BsR-20" value="Review" style="edgeLabel;html=1;align=center;verticalAlign=middle;resizable=0;points=[];" vertex="1" connectable="0" parent="hbKmOejq8FoYTneG4BsR-17">
                    <mxGeometry x="-0.3088" y="1" relative="1" as="geometry">
                        <mxPoint as="offset"/>
                    </mxGeometry>
                </mxCell>
                <mxCell id="hbKmOejq8FoYTneG4BsR-6" value="Intefaces" style="whiteSpace=wrap;html=1;rounded=1;" vertex="1" parent="1">
                    <mxGeometry x="620" y="270" width="120" height="60" as="geometry"/>
                </mxCell>
                <mxCell id="hbKmOejq8FoYTneG4BsR-11" value="" style="edgeStyle=none;html=1;strokeColor=#FF0000;" edge="1" parent="1" source="hbKmOejq8FoYTneG4BsR-8" target="hbKmOejq8FoYTneG4BsR-10">
                    <mxGeometry relative="1" as="geometry"/>
                </mxCell>
                <mxCell id="hbKmOejq8FoYTneG4BsR-16" style="edgeStyle=none;html=1;entryX=0.75;entryY=1;entryDx=0;entryDy=0;strokeColor=#FF0000;" edge="1" parent="1" source="hbKmOejq8FoYTneG4BsR-8" target="hbKmOejq8FoYTneG4BsR-1">
                    <mxGeometry relative="1" as="geometry"/>
                </mxCell>
                <mxCell id="hbKmOejq8FoYTneG4BsR-19" value="Review" style="edgeLabel;html=1;align=center;verticalAlign=middle;resizable=0;points=[];" vertex="1" connectable="0" parent="hbKmOejq8FoYTneG4BsR-16">
                    <mxGeometry x="-0.206" y="-3" relative="1" as="geometry">
                        <mxPoint x="-1" as="offset"/>
                    </mxGeometry>
                </mxCell>
                <mxCell id="hbKmOejq8FoYTneG4BsR-8" value="Test" style="whiteSpace=wrap;html=1;rounded=1;" vertex="1" parent="1">
                    <mxGeometry x="420" y="270" width="120" height="60" as="geometry"/>
                </mxCell>
                <mxCell id="hbKmOejq8FoYTneG4BsR-15" style="edgeStyle=none;html=1;entryX=0.5;entryY=1;entryDx=0;entryDy=0;strokeColor=#FF0000;" edge="1" parent="1" source="hbKmOejq8FoYTneG4BsR-10" target="hbKmOejq8FoYTneG4BsR-1">
                    <mxGeometry relative="1" as="geometry"/>
                </mxCell>
                <mxCell id="hbKmOejq8FoYTneG4BsR-18" value="Review" style="edgeLabel;html=1;align=center;verticalAlign=middle;resizable=0;points=[];" vertex="1" connectable="0" parent="hbKmOejq8FoYTneG4BsR-15">
                    <mxGeometry x="-0.525" y="-4" relative="1" as="geometry">
                        <mxPoint as="offset"/>
                    </mxGeometry>
                </mxCell>
                <mxCell id="hbKmOejq8FoYTneG4BsR-10" value="Implement" style="whiteSpace=wrap;html=1;rounded=1;" vertex="1" parent="1">
                    <mxGeometry x="220" y="270" width="120" height="60" as="geometry"/>
                </mxCell>
            </root>
        </mxGraphModel>
    </diagram>
</mxfile>